G04*
G04 #@! TF.GenerationSoftware,Altium Limited,Altium Designer,21.6.4 (81)*
G04*
G04 Layer_Color=65535*
%FSLAX25Y25*%
%MOIN*%
G70*
G04*
G04 #@! TF.SameCoordinates,3774DA31-8614-4C77-8703-5363F9479B90*
G04*
G04*
G04 #@! TF.FilePolarity,Positive*
G04*
G01*
G75*
%ADD10C,0.00787*%
%ADD11C,0.00500*%
%ADD12C,0.01000*%
%ADD13C,0.00394*%
G36*
X329174Y183055D02*
X329316D01*
Y182913D01*
X329601D01*
Y182771D01*
X329743D01*
Y182629D01*
Y182486D01*
X329885D01*
Y182344D01*
Y182202D01*
X330027D01*
Y182060D01*
Y181918D01*
Y181775D01*
Y181633D01*
Y181491D01*
Y181349D01*
X329885D01*
Y181207D01*
Y181064D01*
Y180922D01*
X329743D01*
Y180780D01*
X329601D01*
Y180638D01*
X329459D01*
Y180495D01*
X329316D01*
Y180353D01*
X328890D01*
Y180211D01*
X328179D01*
Y180353D01*
X327752D01*
Y180495D01*
X327610D01*
Y180638D01*
X327326D01*
Y180780D01*
Y180922D01*
X327183D01*
Y181064D01*
Y181207D01*
X327041D01*
Y181349D01*
Y181491D01*
Y181633D01*
Y181775D01*
Y181918D01*
Y182060D01*
Y182202D01*
Y182344D01*
X327183D01*
Y182486D01*
Y182629D01*
X327326D01*
Y182771D01*
X327468D01*
Y182913D01*
X327610D01*
Y183055D01*
X327894D01*
Y183197D01*
X329174D01*
Y183055D01*
D02*
G37*
G36*
X368707Y188317D02*
X369276D01*
Y188174D01*
X369703D01*
Y188032D01*
X369987D01*
Y187890D01*
X370271D01*
Y187748D01*
X370414D01*
Y187606D01*
X370698D01*
Y187463D01*
X370840D01*
Y187321D01*
X370982D01*
Y187179D01*
X371125D01*
Y187037D01*
X371267D01*
Y186895D01*
X371409D01*
Y186752D01*
X371551D01*
Y186610D01*
Y186468D01*
X371693D01*
Y186326D01*
Y186184D01*
X371836D01*
Y186041D01*
Y185899D01*
X371978D01*
Y185757D01*
Y185615D01*
Y185473D01*
Y185330D01*
X372120D01*
Y185188D01*
Y185046D01*
Y184904D01*
Y184762D01*
Y184619D01*
Y184477D01*
Y184335D01*
Y184193D01*
Y184051D01*
Y183908D01*
Y183766D01*
Y183624D01*
Y183482D01*
Y183340D01*
Y183197D01*
Y183055D01*
Y182913D01*
Y182771D01*
Y182629D01*
Y182486D01*
Y182344D01*
Y182202D01*
Y182060D01*
Y181918D01*
Y181775D01*
Y181633D01*
Y181491D01*
Y181349D01*
Y181207D01*
Y181064D01*
Y180922D01*
Y180780D01*
Y180638D01*
Y180495D01*
Y180353D01*
Y180211D01*
Y180069D01*
Y179927D01*
Y179784D01*
Y179642D01*
Y179500D01*
X371978D01*
Y179358D01*
Y179216D01*
Y179073D01*
Y178931D01*
X371836D01*
Y178789D01*
X371693D01*
Y178647D01*
Y178505D01*
X371551D01*
Y178362D01*
X371409D01*
Y178220D01*
Y178078D01*
X371267D01*
Y177936D01*
X371125D01*
Y177794D01*
X370840D01*
Y177651D01*
X370698D01*
Y177509D01*
X370414D01*
Y177367D01*
X369987D01*
Y177225D01*
X369560D01*
Y177367D01*
Y177509D01*
Y177651D01*
Y177794D01*
Y177936D01*
Y178078D01*
X369418D01*
Y178220D01*
X369276D01*
Y178078D01*
X369134D01*
Y177936D01*
X368992D01*
Y177794D01*
X368707D01*
Y177651D01*
X368565D01*
Y177509D01*
X368281D01*
Y177367D01*
X367996D01*
Y177225D01*
X367569D01*
Y177083D01*
X367001D01*
Y176940D01*
X364868D01*
Y177083D01*
X364299D01*
Y177225D01*
X363872D01*
Y177367D01*
X363588D01*
Y177509D01*
X363446D01*
Y177651D01*
X363161D01*
Y177794D01*
X363019D01*
Y177936D01*
X362877D01*
Y178078D01*
X362735D01*
Y178220D01*
Y178362D01*
X362592D01*
Y178505D01*
X362450D01*
Y178647D01*
Y178789D01*
X362308D01*
Y178931D01*
Y179073D01*
Y179216D01*
Y179358D01*
X362166D01*
Y179500D01*
Y179642D01*
Y179784D01*
Y179927D01*
Y180069D01*
Y180211D01*
Y180353D01*
Y180495D01*
Y180638D01*
Y180780D01*
X362308D01*
Y180922D01*
Y181064D01*
Y181207D01*
Y181349D01*
X362450D01*
Y181491D01*
Y181633D01*
X362592D01*
Y181775D01*
Y181918D01*
X362735D01*
Y182060D01*
X362877D01*
Y182202D01*
X363019D01*
Y182344D01*
X363161D01*
Y182486D01*
X363303D01*
Y182629D01*
X363446D01*
Y182771D01*
X363730D01*
Y182913D01*
X363872D01*
Y183055D01*
X364299D01*
Y183197D01*
X364583D01*
Y183340D01*
X365152D01*
Y183482D01*
X365721D01*
Y183624D01*
X366574D01*
Y183766D01*
X367427D01*
Y183908D01*
X368281D01*
Y184051D01*
X369134D01*
Y184193D01*
X369276D01*
Y184335D01*
Y184477D01*
Y184619D01*
Y184762D01*
Y184904D01*
Y185046D01*
X369134D01*
Y185188D01*
Y185330D01*
X368992D01*
Y185473D01*
X368849D01*
Y185615D01*
X368707D01*
Y185757D01*
X368423D01*
Y185899D01*
X368138D01*
Y186041D01*
X367569D01*
Y186184D01*
X367001D01*
Y186041D01*
X366432D01*
Y185899D01*
X366005D01*
Y185757D01*
X365863D01*
Y185615D01*
X365579D01*
Y185473D01*
X365436D01*
Y185330D01*
X365294D01*
Y185188D01*
X365152D01*
Y185046D01*
Y184904D01*
X365010D01*
Y184762D01*
X364868D01*
Y184619D01*
Y184477D01*
X364725D01*
Y184619D01*
X364441D01*
Y184762D01*
X364157D01*
Y184904D01*
X363872D01*
Y185046D01*
X363446D01*
Y185188D01*
X363303D01*
Y185330D01*
X363019D01*
Y185473D01*
X362592D01*
Y185615D01*
Y185757D01*
X362735D01*
Y185899D01*
Y186041D01*
X362877D01*
Y186184D01*
Y186326D01*
X363019D01*
Y186468D01*
Y186610D01*
X363161D01*
Y186752D01*
X363303D01*
Y186895D01*
X363446D01*
Y187037D01*
X363588D01*
Y187179D01*
X363730D01*
Y187321D01*
X363872D01*
Y187463D01*
X364014D01*
Y187606D01*
X364299D01*
Y187748D01*
X364441D01*
Y187890D01*
X364725D01*
Y188032D01*
X365152D01*
Y188174D01*
X365579D01*
Y188317D01*
X366147D01*
Y188459D01*
X368707D01*
Y188317D01*
D02*
G37*
G36*
X325192Y195000D02*
X325761D01*
Y194858D01*
X326046D01*
Y194716D01*
X326330D01*
Y194574D01*
X326614D01*
Y194431D01*
X326757D01*
Y194289D01*
X326899D01*
Y194147D01*
X327183D01*
Y194005D01*
Y193863D01*
X327326D01*
Y193720D01*
X327468D01*
Y193578D01*
X327610D01*
Y193436D01*
Y193294D01*
X327752D01*
Y193152D01*
X327894D01*
Y193009D01*
Y192867D01*
Y192725D01*
X328036D01*
Y192583D01*
Y192441D01*
Y192298D01*
X328179D01*
Y192156D01*
Y192014D01*
Y191872D01*
Y191730D01*
Y191587D01*
Y191445D01*
Y191303D01*
Y191161D01*
Y191019D01*
Y190876D01*
Y190734D01*
Y190592D01*
Y190450D01*
Y190308D01*
Y190165D01*
Y190023D01*
Y189881D01*
Y189739D01*
X329316D01*
Y189597D01*
X330027D01*
Y189454D01*
X330596D01*
Y189312D01*
X331023D01*
Y189170D01*
X331449D01*
Y189028D01*
X331734D01*
Y188885D01*
X332018D01*
Y188743D01*
X332303D01*
Y188601D01*
X332445D01*
Y188459D01*
X332729D01*
Y188317D01*
X333014D01*
Y188174D01*
X333156D01*
Y188032D01*
X333298D01*
Y187890D01*
X333440D01*
Y187748D01*
X333582D01*
Y187606D01*
X333725D01*
Y187463D01*
X333867D01*
Y187321D01*
X334009D01*
Y187179D01*
X334151D01*
Y187037D01*
X334294D01*
Y186895D01*
X334436D01*
Y186752D01*
X334578D01*
Y186610D01*
X334720D01*
Y186468D01*
X334862D01*
Y186326D01*
Y186184D01*
X335005D01*
Y186041D01*
X335147D01*
Y185899D01*
Y185757D01*
X335289D01*
Y185615D01*
Y185473D01*
X335431D01*
Y185330D01*
Y185188D01*
X335573D01*
Y185046D01*
Y184904D01*
X335716D01*
Y184762D01*
Y184619D01*
X336000D01*
Y184762D01*
X336142D01*
Y184904D01*
Y185046D01*
Y185188D01*
X336284D01*
Y185330D01*
Y185473D01*
X336427D01*
Y185615D01*
X336569D01*
Y185757D01*
Y185899D01*
X336711D01*
Y186041D01*
Y186184D01*
X336853D01*
Y186326D01*
X336995D01*
Y186468D01*
X337138D01*
Y186610D01*
X337280D01*
Y186752D01*
X337422D01*
Y186895D01*
X337564D01*
Y187037D01*
X337706D01*
Y187179D01*
X337849D01*
Y187321D01*
X338133D01*
Y187463D01*
X338275D01*
Y187606D01*
X338560D01*
Y187748D01*
X338702D01*
Y187890D01*
X339128D01*
Y188032D01*
X339413D01*
Y188174D01*
X339840D01*
Y188317D01*
X340408D01*
Y188459D01*
X342968D01*
Y188317D01*
X343537D01*
Y188174D01*
X343964D01*
Y188032D01*
X344248D01*
Y187890D01*
X344532D01*
Y187748D01*
X344817D01*
Y187606D01*
X344959D01*
Y187463D01*
X345243D01*
Y187321D01*
X345386D01*
Y187179D01*
X345528D01*
Y187037D01*
X345812D01*
Y186895D01*
X345954D01*
Y186752D01*
X346096D01*
Y186610D01*
X346239D01*
Y186468D01*
Y186326D01*
X346381D01*
Y186184D01*
X346665D01*
Y186326D01*
Y186468D01*
Y186610D01*
Y186752D01*
Y186895D01*
Y187037D01*
Y187179D01*
Y187321D01*
Y187463D01*
Y187606D01*
Y187748D01*
Y187890D01*
Y188032D01*
Y188174D01*
Y188317D01*
X347519D01*
Y188459D01*
X347803D01*
Y188601D01*
X347945D01*
Y188743D01*
X348230D01*
Y188885D01*
Y189028D01*
X348372D01*
Y189170D01*
Y189312D01*
X348514D01*
Y189454D01*
Y189597D01*
Y189739D01*
Y189881D01*
Y190023D01*
Y190165D01*
Y190308D01*
Y190450D01*
Y190592D01*
Y190734D01*
Y190876D01*
X351500D01*
Y190734D01*
Y190592D01*
Y190450D01*
Y190308D01*
Y190165D01*
Y190023D01*
Y189881D01*
Y189739D01*
Y189597D01*
Y189454D01*
Y189312D01*
Y189170D01*
Y189028D01*
Y188885D01*
Y188743D01*
Y188601D01*
Y188459D01*
Y188317D01*
X355055D01*
Y188459D01*
X355340D01*
Y188601D01*
X355624D01*
Y188743D01*
X355767D01*
Y188885D01*
Y189028D01*
X355909D01*
Y189170D01*
Y189312D01*
X356051D01*
Y189454D01*
Y189597D01*
Y189739D01*
Y189881D01*
Y190023D01*
Y190165D01*
Y190308D01*
X356193D01*
Y190450D01*
X356051D01*
Y190592D01*
Y190734D01*
Y190876D01*
X359037D01*
Y190734D01*
Y190592D01*
Y190450D01*
Y190308D01*
Y190165D01*
Y190023D01*
Y189881D01*
Y189739D01*
Y189597D01*
Y189454D01*
Y189312D01*
Y189170D01*
Y189028D01*
Y188885D01*
Y188743D01*
Y188601D01*
Y188459D01*
Y188317D01*
X359179D01*
Y188174D01*
X359890D01*
Y188032D01*
X360317D01*
Y187890D01*
X360459D01*
Y187748D01*
X360601D01*
Y187606D01*
X360886D01*
Y187463D01*
X361028D01*
Y187321D01*
Y187179D01*
X361170D01*
Y187037D01*
X361313D01*
Y186895D01*
Y186752D01*
X361455D01*
Y186610D01*
Y186468D01*
Y186326D01*
X361597D01*
Y186184D01*
Y186041D01*
Y185899D01*
Y185757D01*
X359037D01*
Y185615D01*
Y185473D01*
Y185330D01*
Y185188D01*
Y185046D01*
Y184904D01*
Y184762D01*
Y184619D01*
Y184477D01*
Y184335D01*
Y184193D01*
Y184051D01*
Y183908D01*
Y183766D01*
Y183624D01*
Y183482D01*
Y183340D01*
Y183197D01*
Y183055D01*
Y182913D01*
Y182771D01*
Y182629D01*
Y182486D01*
Y182344D01*
Y182202D01*
Y182060D01*
Y181918D01*
Y181775D01*
Y181633D01*
Y181491D01*
Y181349D01*
Y181207D01*
Y181064D01*
Y180922D01*
Y180780D01*
Y180638D01*
Y180495D01*
X359179D01*
Y180353D01*
X359322D01*
Y180211D01*
Y180069D01*
X359464D01*
Y179927D01*
X359748D01*
Y179784D01*
X360033D01*
Y179642D01*
X360601D01*
Y179500D01*
X361313D01*
Y179642D01*
X361597D01*
Y179500D01*
Y179358D01*
Y179216D01*
Y179073D01*
Y178931D01*
Y178789D01*
Y178647D01*
Y178505D01*
Y178362D01*
Y178220D01*
Y178078D01*
Y177936D01*
Y177794D01*
Y177651D01*
Y177509D01*
Y177367D01*
Y177225D01*
Y177083D01*
X359179D01*
Y177225D01*
X358611D01*
Y177367D01*
X358184D01*
Y177509D01*
X357900D01*
Y177651D01*
X357615D01*
Y177794D01*
X357473D01*
Y177936D01*
X357331D01*
Y178078D01*
X357189D01*
Y178220D01*
X357046D01*
Y178362D01*
X356904D01*
Y178505D01*
X356762D01*
Y178647D01*
Y178789D01*
X356620D01*
Y178931D01*
X356477D01*
Y179073D01*
Y179216D01*
Y179358D01*
X356335D01*
Y179500D01*
Y179642D01*
Y179784D01*
X356193D01*
Y179927D01*
Y180069D01*
Y180211D01*
Y180353D01*
X356051D01*
Y180495D01*
Y180638D01*
Y180780D01*
Y180922D01*
Y181064D01*
Y181207D01*
Y181349D01*
Y181491D01*
Y181633D01*
Y181775D01*
Y181918D01*
Y182060D01*
Y182202D01*
Y182344D01*
Y182486D01*
Y182629D01*
Y182771D01*
Y182913D01*
Y183055D01*
Y183197D01*
Y183340D01*
Y183482D01*
Y183624D01*
Y183766D01*
Y183908D01*
Y184051D01*
Y184193D01*
Y184335D01*
Y184477D01*
Y184619D01*
Y184762D01*
Y184904D01*
Y185046D01*
Y185188D01*
Y185330D01*
Y185473D01*
Y185615D01*
Y185757D01*
X351500D01*
Y185615D01*
Y185473D01*
Y185330D01*
Y185188D01*
Y185046D01*
Y184904D01*
Y184762D01*
Y184619D01*
Y184477D01*
Y184335D01*
Y184193D01*
Y184051D01*
Y183908D01*
Y183766D01*
Y183624D01*
Y183482D01*
Y183340D01*
Y183197D01*
Y183055D01*
Y182913D01*
Y182771D01*
Y182629D01*
Y182486D01*
Y182344D01*
Y182202D01*
Y182060D01*
Y181918D01*
Y181775D01*
Y181633D01*
Y181491D01*
Y181349D01*
Y181207D01*
Y181064D01*
Y180922D01*
Y180780D01*
Y180638D01*
X351642D01*
Y180495D01*
Y180353D01*
Y180211D01*
X351785D01*
Y180069D01*
X351927D01*
Y179927D01*
X352211D01*
Y179784D01*
X352496D01*
Y179642D01*
X353065D01*
Y179500D01*
X353776D01*
Y179642D01*
X354060D01*
Y179500D01*
Y179358D01*
Y179216D01*
Y179073D01*
Y178931D01*
Y178789D01*
Y178647D01*
Y178505D01*
Y178362D01*
Y178220D01*
Y178078D01*
Y177936D01*
Y177794D01*
Y177651D01*
Y177509D01*
Y177367D01*
Y177225D01*
Y177083D01*
X351500D01*
Y177225D01*
X351074D01*
Y177367D01*
X350647D01*
Y177509D01*
X350363D01*
Y177651D01*
X350078D01*
Y177794D01*
X349936D01*
Y177936D01*
X349794D01*
Y178078D01*
X349652D01*
Y178220D01*
X349510D01*
Y178362D01*
X349367D01*
Y178505D01*
X349225D01*
Y178647D01*
X349083D01*
Y178789D01*
Y178931D01*
X348941D01*
Y179073D01*
Y179216D01*
Y179358D01*
X348798D01*
Y179500D01*
Y179642D01*
Y179784D01*
X348656D01*
Y179927D01*
Y180069D01*
Y180211D01*
Y180353D01*
Y180495D01*
X348514D01*
Y180638D01*
Y180780D01*
Y180922D01*
Y181064D01*
Y181207D01*
Y181349D01*
Y181491D01*
Y181633D01*
Y181775D01*
Y181918D01*
Y182060D01*
Y182202D01*
Y182344D01*
Y182486D01*
Y182629D01*
Y182771D01*
Y182913D01*
Y183055D01*
Y183197D01*
Y183340D01*
Y183482D01*
Y183624D01*
Y183766D01*
Y183908D01*
Y184051D01*
Y184193D01*
Y184335D01*
Y184477D01*
Y184619D01*
Y184762D01*
Y184904D01*
Y185046D01*
Y185188D01*
Y185330D01*
Y185473D01*
Y185615D01*
Y185757D01*
X346808D01*
Y185615D01*
Y185473D01*
X346950D01*
Y185330D01*
X347092D01*
Y185188D01*
Y185046D01*
Y184904D01*
X347234D01*
Y184762D01*
Y184619D01*
X347376D01*
Y184477D01*
Y184335D01*
Y184193D01*
Y184051D01*
Y183908D01*
X347519D01*
Y183766D01*
Y183624D01*
Y183482D01*
Y183340D01*
Y183197D01*
Y183055D01*
Y182913D01*
Y182771D01*
X347661D01*
Y182629D01*
X347519D01*
Y182486D01*
Y182344D01*
Y182202D01*
Y182060D01*
Y181918D01*
Y181775D01*
Y181633D01*
Y181491D01*
X347376D01*
Y181349D01*
Y181207D01*
Y181064D01*
Y180922D01*
Y180780D01*
X347234D01*
Y180638D01*
Y180495D01*
X347092D01*
Y180353D01*
Y180211D01*
Y180069D01*
X346950D01*
Y179927D01*
X346808D01*
Y179784D01*
Y179642D01*
X346665D01*
Y179500D01*
X346523D01*
Y179358D01*
Y179216D01*
X346381D01*
Y179073D01*
X346239D01*
Y178931D01*
X346096D01*
Y178789D01*
Y178647D01*
X345954D01*
Y178505D01*
X345812D01*
Y178362D01*
X345528D01*
Y178220D01*
X345386D01*
Y178078D01*
X345243D01*
Y177936D01*
X344959D01*
Y177794D01*
X344817D01*
Y177651D01*
X344532D01*
Y177509D01*
X344248D01*
Y177367D01*
X343821D01*
Y177225D01*
X343395D01*
Y177083D01*
X342826D01*
Y176940D01*
X340551D01*
Y177083D01*
X339982D01*
Y177225D01*
X339413D01*
Y177367D01*
X339128D01*
Y177509D01*
X338844D01*
Y177651D01*
X338560D01*
Y177794D01*
X338275D01*
Y177936D01*
X338133D01*
Y178078D01*
X337849D01*
Y178220D01*
X337706D01*
Y178362D01*
X337564D01*
Y178505D01*
X337422D01*
Y178647D01*
X337280D01*
Y178789D01*
X337138D01*
Y178931D01*
X336995D01*
Y179073D01*
X336853D01*
Y179216D01*
Y179358D01*
X336711D01*
Y179500D01*
X336569D01*
Y179642D01*
Y179784D01*
X336427D01*
Y179927D01*
X336284D01*
Y180069D01*
X336142D01*
Y179927D01*
Y179784D01*
Y179642D01*
Y179500D01*
X336000D01*
Y179358D01*
Y179216D01*
Y179073D01*
X335858D01*
Y178931D01*
Y178789D01*
X335716D01*
Y178647D01*
Y178505D01*
X335573D01*
Y178362D01*
Y178220D01*
X335431D01*
Y178078D01*
Y177936D01*
X335289D01*
Y177794D01*
Y177651D01*
X335147D01*
Y177509D01*
Y177367D01*
X335005D01*
Y177225D01*
X334862D01*
Y177083D01*
X334720D01*
Y176940D01*
Y176798D01*
X334578D01*
Y176656D01*
X334436D01*
Y176514D01*
X334294D01*
Y176372D01*
X334151D01*
Y176229D01*
X334009D01*
Y176087D01*
X333867D01*
Y175945D01*
X333725D01*
Y175803D01*
X333440D01*
Y175661D01*
X333298D01*
Y175518D01*
X333156D01*
Y175376D01*
X332872D01*
Y175234D01*
X332587D01*
Y175092D01*
X332445D01*
Y174949D01*
X332160D01*
Y174807D01*
X331876D01*
Y174665D01*
X331449D01*
Y174523D01*
X331023D01*
Y174381D01*
X330454D01*
Y174238D01*
X329601D01*
Y174096D01*
X327752D01*
Y174238D01*
X326899D01*
Y174381D01*
X326330D01*
Y174523D01*
X325904D01*
Y174665D01*
X325619D01*
Y174807D01*
X325192D01*
Y174949D01*
X324908D01*
Y175092D01*
X324624D01*
Y175234D01*
X324481D01*
Y175376D01*
X324197D01*
Y175518D01*
X324055D01*
Y175661D01*
X323913D01*
Y175803D01*
X323628D01*
Y175945D01*
X323486D01*
Y176087D01*
X323344D01*
Y176229D01*
X323201D01*
Y176372D01*
X323059D01*
Y176514D01*
X322917D01*
Y176656D01*
X322775D01*
Y176798D01*
X322633D01*
Y176940D01*
X322491D01*
Y177083D01*
X322348D01*
Y177225D01*
Y177367D01*
X322206D01*
Y177509D01*
X322064D01*
Y177651D01*
Y177794D01*
X321922D01*
Y177936D01*
X321779D01*
Y178078D01*
Y178220D01*
X321637D01*
Y178362D01*
Y178505D01*
X321495D01*
Y178647D01*
Y178789D01*
X321353D01*
Y178931D01*
Y179073D01*
X321211D01*
Y179216D01*
Y179358D01*
Y179500D01*
X321069D01*
Y179642D01*
Y179784D01*
Y179927D01*
Y180069D01*
X320926D01*
Y180211D01*
Y180353D01*
Y180495D01*
Y180638D01*
Y180780D01*
Y180922D01*
X320784D01*
Y181064D01*
Y181207D01*
Y181349D01*
Y181491D01*
Y181633D01*
Y181775D01*
Y181918D01*
Y182060D01*
Y182202D01*
Y182344D01*
Y182486D01*
Y182629D01*
Y182771D01*
Y182913D01*
Y183055D01*
Y183197D01*
Y183340D01*
Y183482D01*
Y183624D01*
Y183766D01*
Y183908D01*
Y184051D01*
Y184193D01*
Y184335D01*
Y184477D01*
Y184619D01*
Y184762D01*
Y184904D01*
Y185046D01*
Y185188D01*
Y185330D01*
Y185473D01*
Y185615D01*
Y185757D01*
Y185899D01*
Y186041D01*
Y186184D01*
Y186326D01*
Y186468D01*
Y186610D01*
Y186752D01*
Y186895D01*
X321211D01*
Y186752D01*
X321495D01*
Y186610D01*
X321779D01*
Y186468D01*
X322064D01*
Y186326D01*
X322206D01*
Y186184D01*
X322491D01*
Y186041D01*
X322633D01*
Y185899D01*
X322775D01*
Y185757D01*
X322917D01*
Y185615D01*
Y185473D01*
X323059D01*
Y185330D01*
X323201D01*
Y185188D01*
X323344D01*
Y185046D01*
Y184904D01*
X323486D01*
Y184762D01*
Y184619D01*
Y184477D01*
X323628D01*
Y184335D01*
Y184193D01*
Y184051D01*
Y183908D01*
X323770D01*
Y183766D01*
Y183624D01*
Y183482D01*
Y183340D01*
Y183197D01*
Y183055D01*
Y182913D01*
Y182771D01*
Y182629D01*
Y182486D01*
Y182344D01*
Y182202D01*
Y182060D01*
Y181918D01*
Y181775D01*
Y181633D01*
Y181491D01*
Y181349D01*
Y181207D01*
Y181064D01*
Y180922D01*
X323913D01*
Y180780D01*
Y180638D01*
Y180495D01*
Y180353D01*
X324055D01*
Y180211D01*
Y180069D01*
X324197D01*
Y179927D01*
Y179784D01*
X324339D01*
Y179642D01*
Y179500D01*
X324481D01*
Y179358D01*
X324624D01*
Y179216D01*
Y179073D01*
X324766D01*
Y178931D01*
X324908D01*
Y178789D01*
X325050D01*
Y178647D01*
X325192D01*
Y178505D01*
X325335D01*
Y178362D01*
X325477D01*
Y178220D01*
X325619D01*
Y178078D01*
X325904D01*
Y177936D01*
X326046D01*
Y177794D01*
X326330D01*
Y177651D01*
X326614D01*
Y177509D01*
X326899D01*
Y177367D01*
X327326D01*
Y177225D01*
X328321D01*
Y177083D01*
X329174D01*
Y177225D01*
X330027D01*
Y177367D01*
X330454D01*
Y177509D01*
X330881D01*
Y177651D01*
X331023D01*
Y177794D01*
X331307D01*
Y177936D01*
X331592D01*
Y178078D01*
X331734D01*
Y178220D01*
X331876D01*
Y178362D01*
X332018D01*
Y178505D01*
X332160D01*
Y178647D01*
X332303D01*
Y178789D01*
X332445D01*
Y178931D01*
Y179073D01*
X332587D01*
Y179216D01*
X332729D01*
Y179358D01*
Y179500D01*
X332872D01*
Y179642D01*
Y179784D01*
X333014D01*
Y179927D01*
Y180069D01*
X333156D01*
Y180211D01*
Y180353D01*
X333298D01*
Y180495D01*
Y180638D01*
Y180780D01*
Y180922D01*
Y181064D01*
Y181207D01*
X333440D01*
Y181349D01*
Y181491D01*
Y181633D01*
Y181775D01*
Y181918D01*
Y182060D01*
X333298D01*
Y182202D01*
Y182344D01*
Y182486D01*
Y182629D01*
Y182771D01*
X333156D01*
Y182913D01*
Y183055D01*
Y183197D01*
Y183340D01*
X333014D01*
Y183482D01*
Y183624D01*
X332872D01*
Y183766D01*
Y183908D01*
Y184051D01*
X332729D01*
Y184193D01*
X332587D01*
Y184335D01*
Y184477D01*
X332445D01*
Y184619D01*
X332303D01*
Y184762D01*
X332160D01*
Y184904D01*
Y185046D01*
X332018D01*
Y185188D01*
X331876D01*
Y185330D01*
X331734D01*
Y185473D01*
X331449D01*
Y185615D01*
X331307D01*
Y185757D01*
X331165D01*
Y185899D01*
X330881D01*
Y186041D01*
X330738D01*
Y186184D01*
X330454D01*
Y186326D01*
X330170D01*
Y186468D01*
X329743D01*
Y186610D01*
X329032D01*
Y186752D01*
X326188D01*
Y186895D01*
X324624D01*
Y187037D01*
X323770D01*
Y187179D01*
X323344D01*
Y187321D01*
X323059D01*
Y187463D01*
X322917D01*
Y187606D01*
X322633D01*
Y187748D01*
X322491D01*
Y187890D01*
X322348D01*
Y188032D01*
X322206D01*
Y188174D01*
X322064D01*
Y188317D01*
X321922D01*
Y188459D01*
X321779D01*
Y188601D01*
X321637D01*
Y188743D01*
Y188885D01*
X321495D01*
Y189028D01*
X321353D01*
Y189170D01*
Y189312D01*
X321211D01*
Y189454D01*
Y189597D01*
X321069D01*
Y189739D01*
Y189881D01*
Y190023D01*
X320926D01*
Y190165D01*
Y190308D01*
Y190450D01*
Y190592D01*
Y190734D01*
X320784D01*
Y190876D01*
Y191019D01*
Y191161D01*
Y191303D01*
Y191445D01*
Y191587D01*
Y191730D01*
Y191872D01*
Y192014D01*
Y192156D01*
Y192298D01*
Y192441D01*
Y192583D01*
Y192725D01*
Y192867D01*
Y193009D01*
Y193152D01*
Y193294D01*
Y193436D01*
Y193578D01*
Y193720D01*
Y193863D01*
Y194005D01*
Y194147D01*
Y194289D01*
Y194431D01*
Y194574D01*
Y194716D01*
Y194858D01*
Y195000D01*
Y195143D01*
X325192D01*
Y195000D01*
D02*
G37*
G36*
X380652Y188317D02*
X381079D01*
Y188174D01*
X381506D01*
Y188032D01*
X381790D01*
Y187890D01*
X381932D01*
Y187748D01*
X382217D01*
Y187606D01*
X382359D01*
Y187463D01*
X382501D01*
Y187321D01*
X382643D01*
Y187179D01*
X382785D01*
Y187037D01*
Y186895D01*
X382928D01*
Y186752D01*
X383070D01*
Y186610D01*
Y186468D01*
X383212D01*
Y186326D01*
Y186184D01*
X383354D01*
Y186041D01*
Y185899D01*
X383496D01*
Y185757D01*
Y185615D01*
Y185473D01*
Y185330D01*
X383639D01*
Y185188D01*
Y185046D01*
Y184904D01*
Y184762D01*
Y184619D01*
Y184477D01*
Y184335D01*
Y184193D01*
Y184051D01*
Y183908D01*
Y183766D01*
Y183624D01*
Y183482D01*
Y183340D01*
Y183197D01*
Y183055D01*
Y182913D01*
Y182771D01*
Y182629D01*
Y182486D01*
Y182344D01*
Y182202D01*
Y182060D01*
Y181918D01*
Y181775D01*
Y181633D01*
Y181491D01*
Y181349D01*
Y181207D01*
Y181064D01*
Y180922D01*
Y180780D01*
Y180638D01*
Y180495D01*
Y180353D01*
Y180211D01*
Y180069D01*
Y179927D01*
Y179784D01*
Y179642D01*
Y179500D01*
X383496D01*
Y179358D01*
Y179216D01*
Y179073D01*
X383354D01*
Y178931D01*
Y178789D01*
Y178647D01*
X383212D01*
Y178505D01*
X383070D01*
Y178362D01*
Y178220D01*
X382928D01*
Y178078D01*
X382785D01*
Y177936D01*
X382643D01*
Y177794D01*
X382359D01*
Y177651D01*
X382217D01*
Y177509D01*
X381932D01*
Y177367D01*
X381506D01*
Y177225D01*
X380795D01*
Y177367D01*
Y177509D01*
Y177651D01*
Y177794D01*
Y177936D01*
Y178078D01*
Y178220D01*
Y178362D01*
Y178505D01*
Y178647D01*
Y178789D01*
Y178931D01*
Y179073D01*
Y179216D01*
Y179358D01*
Y179500D01*
Y179642D01*
Y179784D01*
Y179927D01*
Y180069D01*
Y180211D01*
Y180353D01*
Y180495D01*
Y180638D01*
Y180780D01*
Y180922D01*
Y181064D01*
Y181207D01*
Y181349D01*
Y181491D01*
Y181633D01*
Y181775D01*
Y181918D01*
Y182060D01*
Y182202D01*
Y182344D01*
Y182486D01*
Y182629D01*
Y182771D01*
Y182913D01*
Y183055D01*
Y183197D01*
Y183340D01*
Y183482D01*
Y183624D01*
Y183766D01*
Y183908D01*
Y184051D01*
Y184193D01*
Y184335D01*
Y184477D01*
X380652D01*
Y184619D01*
Y184762D01*
X380510D01*
Y184904D01*
Y185046D01*
X380368D01*
Y185188D01*
X380226D01*
Y185330D01*
X380083D01*
Y185473D01*
X379941D01*
Y185615D01*
X379657D01*
Y185757D01*
X379230D01*
Y185899D01*
X377951D01*
Y185757D01*
X377524D01*
Y185615D01*
X377382D01*
Y185473D01*
X377239D01*
Y185330D01*
X377097D01*
Y185188D01*
X376955D01*
Y185046D01*
X376813D01*
Y184904D01*
X376671D01*
Y184762D01*
Y184619D01*
X376528D01*
Y184477D01*
Y184335D01*
Y184193D01*
X376386D01*
Y184051D01*
Y183908D01*
Y183766D01*
Y183624D01*
Y183482D01*
Y183340D01*
Y183197D01*
Y183055D01*
Y182913D01*
Y182771D01*
Y182629D01*
Y182486D01*
Y182344D01*
Y182202D01*
Y182060D01*
Y181918D01*
Y181775D01*
Y181633D01*
Y181491D01*
Y181349D01*
Y181207D01*
Y181064D01*
Y180922D01*
Y180780D01*
Y180638D01*
Y180495D01*
Y180353D01*
Y180211D01*
Y180069D01*
Y179927D01*
Y179784D01*
Y179642D01*
Y179500D01*
Y179358D01*
Y179216D01*
Y179073D01*
Y178931D01*
Y178789D01*
Y178647D01*
Y178505D01*
Y178362D01*
Y178220D01*
Y178078D01*
Y177936D01*
Y177794D01*
Y177651D01*
Y177509D01*
Y177367D01*
Y177225D01*
X375675D01*
Y177367D01*
X375249D01*
Y177509D01*
X375106D01*
Y177651D01*
X374822D01*
Y177794D01*
X374680D01*
Y177936D01*
X374538D01*
Y178078D01*
X374395D01*
Y178220D01*
X374253D01*
Y178362D01*
X374111D01*
Y178505D01*
Y178647D01*
X373969D01*
Y178789D01*
Y178931D01*
X373827D01*
Y179073D01*
Y179216D01*
X373684D01*
Y179358D01*
Y179500D01*
Y179642D01*
Y179784D01*
Y179927D01*
X373542D01*
Y180069D01*
Y180211D01*
Y180353D01*
Y180495D01*
Y180638D01*
Y180780D01*
Y180922D01*
Y181064D01*
Y181207D01*
Y181349D01*
Y181491D01*
Y181633D01*
Y181775D01*
Y181918D01*
Y182060D01*
Y182202D01*
Y182344D01*
Y182486D01*
Y182629D01*
Y182771D01*
Y182913D01*
Y183055D01*
Y183197D01*
Y183340D01*
Y183482D01*
Y183624D01*
Y183766D01*
Y183908D01*
Y184051D01*
Y184193D01*
Y184335D01*
Y184477D01*
Y184619D01*
Y184762D01*
Y184904D01*
Y185046D01*
Y185188D01*
Y185330D01*
Y185473D01*
Y185615D01*
Y185757D01*
Y185899D01*
Y186041D01*
Y186184D01*
Y186326D01*
Y186468D01*
Y186610D01*
Y186752D01*
Y186895D01*
Y187037D01*
Y187179D01*
Y187321D01*
Y187463D01*
Y187606D01*
Y187748D01*
Y187890D01*
Y188032D01*
Y188174D01*
Y188317D01*
X376244D01*
Y188174D01*
Y188032D01*
Y187890D01*
Y187748D01*
Y187606D01*
Y187463D01*
Y187321D01*
Y187179D01*
Y187037D01*
Y186895D01*
X376386D01*
Y187037D01*
X376671D01*
Y187179D01*
Y187321D01*
X376813D01*
Y187463D01*
X376955D01*
Y187606D01*
X377097D01*
Y187748D01*
X377239D01*
Y187890D01*
X377382D01*
Y188032D01*
X377666D01*
Y188174D01*
X377951D01*
Y188317D01*
X378377D01*
Y188459D01*
X380652D01*
Y188317D01*
D02*
G37*
G36*
X385630Y188032D02*
X386056D01*
Y187890D01*
X386341D01*
Y187748D01*
X386483D01*
Y187606D01*
X386625D01*
Y187463D01*
X386767D01*
Y187321D01*
X386909D01*
Y187179D01*
X387052D01*
Y187037D01*
X387194D01*
Y186895D01*
X387336D01*
Y186752D01*
Y186610D01*
X387478D01*
Y186468D01*
Y186326D01*
X387620D01*
Y186184D01*
Y186041D01*
Y185899D01*
Y185757D01*
Y185615D01*
X387763D01*
Y185473D01*
Y185330D01*
Y185188D01*
Y185046D01*
Y184904D01*
Y184762D01*
Y184619D01*
Y184477D01*
Y184335D01*
Y184193D01*
Y184051D01*
Y183908D01*
Y183766D01*
Y183624D01*
Y183482D01*
Y183340D01*
Y183197D01*
Y183055D01*
Y182913D01*
Y182771D01*
Y182629D01*
Y182486D01*
Y182344D01*
Y182202D01*
Y182060D01*
Y181918D01*
Y181775D01*
Y181633D01*
Y181491D01*
Y181349D01*
Y181207D01*
Y181064D01*
Y180922D01*
Y180780D01*
Y180638D01*
Y180495D01*
Y180353D01*
Y180211D01*
Y180069D01*
Y179927D01*
Y179784D01*
X387620D01*
Y179642D01*
Y179500D01*
Y179358D01*
Y179216D01*
Y179073D01*
X387478D01*
Y178931D01*
Y178789D01*
X387336D01*
Y178647D01*
Y178505D01*
X387194D01*
Y178362D01*
X387052D01*
Y178220D01*
X386909D01*
Y178078D01*
Y177936D01*
X386625D01*
Y177794D01*
X386483D01*
Y177651D01*
X386341D01*
Y177509D01*
X386056D01*
Y177367D01*
X385630D01*
Y177225D01*
X384918D01*
Y177367D01*
Y177509D01*
Y177651D01*
Y177794D01*
Y177936D01*
Y178078D01*
Y178220D01*
Y178362D01*
Y178505D01*
Y178647D01*
Y178789D01*
Y178931D01*
Y179073D01*
Y179216D01*
Y179358D01*
Y179500D01*
Y179642D01*
Y179784D01*
Y179927D01*
Y180069D01*
Y180211D01*
Y180353D01*
Y180495D01*
Y180638D01*
Y180780D01*
Y180922D01*
Y181064D01*
Y181207D01*
Y181349D01*
Y181491D01*
Y181633D01*
Y181775D01*
Y181918D01*
Y182060D01*
Y182202D01*
Y182344D01*
Y182486D01*
Y182629D01*
Y182771D01*
Y182913D01*
Y183055D01*
Y183197D01*
Y183340D01*
Y183482D01*
Y183624D01*
Y183766D01*
Y183908D01*
Y184051D01*
Y184193D01*
Y184335D01*
Y184477D01*
Y184619D01*
Y184762D01*
Y184904D01*
Y185046D01*
Y185188D01*
Y185330D01*
Y185473D01*
Y185615D01*
Y185757D01*
Y185899D01*
Y186041D01*
Y186184D01*
Y186326D01*
Y186468D01*
Y186610D01*
Y186752D01*
Y186895D01*
Y187037D01*
Y187179D01*
Y187321D01*
Y187463D01*
Y187606D01*
Y187748D01*
Y187890D01*
Y188032D01*
Y188174D01*
X385630D01*
Y188032D01*
D02*
G37*
G36*
X386625Y192298D02*
X387052D01*
Y192156D01*
X387194D01*
Y192014D01*
X387336D01*
Y191872D01*
X387478D01*
Y191730D01*
X387620D01*
Y191587D01*
Y191445D01*
X387763D01*
Y191303D01*
Y191161D01*
Y191019D01*
Y190876D01*
Y190734D01*
Y190592D01*
Y190450D01*
Y190308D01*
X387620D01*
Y190165D01*
Y190023D01*
X387478D01*
Y189881D01*
X387336D01*
Y189739D01*
X387194D01*
Y189597D01*
X386909D01*
Y189454D01*
X385772D01*
Y189597D01*
X385487D01*
Y189739D01*
X385345D01*
Y189881D01*
X385203D01*
Y190023D01*
X385061D01*
Y190165D01*
Y190308D01*
X384918D01*
Y190450D01*
Y190592D01*
Y190734D01*
Y190876D01*
Y191019D01*
Y191161D01*
Y191303D01*
Y191445D01*
X385061D01*
Y191587D01*
Y191730D01*
X385203D01*
Y191872D01*
Y192014D01*
X385487D01*
Y192156D01*
X385630D01*
Y192298D01*
X385914D01*
Y192441D01*
X386625D01*
Y192298D01*
D02*
G37*
%LPC*%
G36*
X369276Y182060D02*
X368992D01*
Y181918D01*
X368138D01*
Y181775D01*
X367285D01*
Y181633D01*
X366432D01*
Y181491D01*
X366005D01*
Y181349D01*
X365721D01*
Y181207D01*
X365579D01*
Y181064D01*
X365436D01*
Y180922D01*
X365294D01*
Y180780D01*
X365152D01*
Y180638D01*
Y180495D01*
Y180353D01*
Y180211D01*
Y180069D01*
Y179927D01*
Y179784D01*
Y179642D01*
X365294D01*
Y179500D01*
X365436D01*
Y179358D01*
X365579D01*
Y179216D01*
X365863D01*
Y179073D01*
X366432D01*
Y178931D01*
X366716D01*
Y179073D01*
X367569D01*
Y179216D01*
X367854D01*
Y179358D01*
X368138D01*
Y179500D01*
X368281D01*
Y179642D01*
X368423D01*
Y179784D01*
X368707D01*
Y179927D01*
Y180069D01*
X368849D01*
Y180211D01*
X368992D01*
Y180353D01*
Y180495D01*
X369134D01*
Y180638D01*
Y180780D01*
X369276D01*
Y180922D01*
Y181064D01*
Y181207D01*
Y181349D01*
Y181491D01*
Y181633D01*
Y181775D01*
Y181918D01*
Y182060D01*
D02*
G37*
G36*
X325192Y193009D02*
X323913D01*
Y192867D01*
X323628D01*
Y192725D01*
X323486D01*
Y192583D01*
X323344D01*
Y192441D01*
X323201D01*
Y192298D01*
X323059D01*
Y192156D01*
X322917D01*
Y192014D01*
Y191872D01*
Y191730D01*
X322775D01*
Y191587D01*
Y191445D01*
Y191303D01*
Y191161D01*
Y191019D01*
X322917D01*
Y190876D01*
Y190734D01*
Y190592D01*
X323059D01*
Y190450D01*
X323201D01*
Y190308D01*
Y190165D01*
X323344D01*
Y190023D01*
X323628D01*
Y189881D01*
X323770D01*
Y189739D01*
X324197D01*
Y189597D01*
X324908D01*
Y189739D01*
X325335D01*
Y189881D01*
X325477D01*
Y190023D01*
X325761D01*
Y190165D01*
X325904D01*
Y190308D01*
X326046D01*
Y190450D01*
Y190592D01*
X326188D01*
Y190734D01*
Y190876D01*
Y191019D01*
X326330D01*
Y191161D01*
Y191303D01*
Y191445D01*
Y191587D01*
X326188D01*
Y191730D01*
Y191872D01*
Y192014D01*
Y192156D01*
X326046D01*
Y192298D01*
X325904D01*
Y192441D01*
Y192583D01*
X325619D01*
Y192725D01*
X325477D01*
Y192867D01*
X325192D01*
Y193009D01*
D02*
G37*
G36*
X342399Y185899D02*
X340835D01*
Y185757D01*
X340408D01*
Y185615D01*
X340124D01*
Y185473D01*
X339982D01*
Y185330D01*
X339840D01*
Y185188D01*
X339697D01*
Y185046D01*
X339555D01*
Y184904D01*
X339413D01*
Y184762D01*
X339271D01*
Y184619D01*
Y184477D01*
X339128D01*
Y184335D01*
X338986D01*
Y184193D01*
Y184051D01*
Y183908D01*
X338844D01*
Y183766D01*
Y183624D01*
Y183482D01*
X338702D01*
Y183340D01*
Y183197D01*
Y183055D01*
Y182913D01*
Y182771D01*
Y182629D01*
Y182486D01*
Y182344D01*
Y182202D01*
Y182060D01*
Y181918D01*
X338844D01*
Y181775D01*
Y181633D01*
Y181491D01*
Y181349D01*
X338986D01*
Y181207D01*
Y181064D01*
X339128D01*
Y180922D01*
X339271D01*
Y180780D01*
Y180638D01*
X339413D01*
Y180495D01*
X339555D01*
Y180353D01*
X339697D01*
Y180211D01*
X339840D01*
Y180069D01*
X339982D01*
Y179927D01*
X340266D01*
Y179784D01*
X340551D01*
Y179642D01*
X341119D01*
Y179500D01*
X342257D01*
Y179642D01*
X342826D01*
Y179784D01*
X343110D01*
Y179927D01*
X343252D01*
Y180069D01*
X343537D01*
Y180211D01*
X343679D01*
Y180353D01*
X343821D01*
Y180495D01*
Y180638D01*
X343964D01*
Y180780D01*
X344106D01*
Y180922D01*
X344248D01*
Y181064D01*
Y181207D01*
Y181349D01*
X344390D01*
Y181491D01*
Y181633D01*
X344532D01*
Y181775D01*
Y181918D01*
Y182060D01*
Y182202D01*
Y182344D01*
Y182486D01*
Y182629D01*
Y182771D01*
Y182913D01*
Y183055D01*
Y183197D01*
Y183340D01*
Y183482D01*
Y183624D01*
Y183766D01*
X344390D01*
Y183908D01*
Y184051D01*
Y184193D01*
X344248D01*
Y184335D01*
Y184477D01*
X344106D01*
Y184619D01*
X343964D01*
Y184762D01*
Y184904D01*
X343821D01*
Y185046D01*
X343679D01*
Y185188D01*
X343537D01*
Y185330D01*
X343395D01*
Y185473D01*
X343110D01*
Y185615D01*
X342826D01*
Y185757D01*
X342399D01*
Y185899D01*
D02*
G37*
%LPD*%
D10*
X184929Y381000D02*
G03*
X184929Y381000I-394J0D01*
G01*
X268559Y183000D02*
G03*
X268953Y183000I197J0D01*
G01*
D02*
G03*
X268559Y183000I-197J0D01*
G01*
D02*
G03*
X268953Y183000I197J0D01*
G01*
X166000Y241394D02*
Y261394D01*
Y241394D02*
X176000D01*
Y261394D01*
X166000D02*
X176000D01*
X166000Y301606D02*
Y321606D01*
Y301606D02*
X176000D01*
Y321606D01*
X166000D02*
X176000D01*
X166000Y388106D02*
Y408106D01*
Y388106D02*
X176000D01*
Y408106D01*
X166000D02*
X176000D01*
X166000Y327894D02*
Y347894D01*
Y327894D02*
X176000D01*
Y347894D01*
X166000D02*
X176000D01*
X311500Y333496D02*
Y353496D01*
X301500D02*
X311500D01*
X301500Y333496D02*
Y353496D01*
Y333496D02*
X311500D01*
X215827Y184000D02*
Y197386D01*
X264646D01*
Y174748D02*
Y197386D01*
X225472Y174748D02*
X264646D01*
X162669Y184000D02*
Y197386D01*
X211488D01*
Y174748D02*
Y197386D01*
X172315Y174748D02*
X211488D01*
X366500Y409000D02*
Y419000D01*
X386500D01*
Y409000D02*
Y419000D01*
X366500Y409000D02*
X386500D01*
X306394D02*
Y419000D01*
X326394D01*
Y409000D02*
Y419000D01*
X306394Y409000D02*
X326394D01*
X271512Y173748D02*
X310488D01*
Y196386D01*
X271512D02*
X310488D01*
X271512Y173748D02*
Y196386D01*
D11*
X299024Y219622D02*
Y420213D01*
X186780Y219622D02*
X299024D01*
X186780Y420213D02*
X299024D01*
X186780Y219622D02*
Y420213D01*
X230358D01*
X256780D01*
X299024D01*
X186780Y219622D02*
Y420213D01*
X299024Y219622D02*
Y420213D01*
X186780Y219622D02*
X207921D01*
X277567D01*
X299024D01*
D12*
X347400Y248500D02*
X354400D01*
X347400Y230500D02*
Y248500D01*
Y230500D02*
X354400D01*
X321400Y199500D02*
Y279500D01*
X354400D01*
Y199500D02*
Y279500D01*
X321400Y199500D02*
X354400D01*
X393400Y248500D02*
X400400D01*
X393400Y230500D02*
Y248500D01*
Y230500D02*
X400400D01*
X367400Y199500D02*
Y279500D01*
X400400D01*
Y199500D02*
Y279500D01*
X367400Y199500D02*
X400400D01*
X347400Y332500D02*
X354400D01*
X347400Y314500D02*
Y332500D01*
Y314500D02*
X354400D01*
X321400Y283500D02*
Y363500D01*
X354400D01*
Y283500D02*
Y363500D01*
X321400Y283500D02*
X354400D01*
X393400Y332500D02*
X400400D01*
X393400Y314500D02*
Y332500D01*
Y314500D02*
X400400D01*
X367400Y283500D02*
Y363500D01*
X400400D01*
Y283500D02*
Y363500D01*
X367400Y283500D02*
X400400D01*
X127600Y359000D02*
X134600D01*
Y377000D01*
X127600D02*
X134600D01*
X160600Y328000D02*
Y408000D01*
X127600Y328000D02*
X160600D01*
X127600D02*
Y408000D01*
X160600D01*
X337500Y398400D02*
Y405400D01*
Y398400D02*
X355500D01*
Y405400D01*
X306500Y372400D02*
X386500D01*
X306500D02*
Y405400D01*
X386500D01*
Y372400D02*
Y405400D01*
X127600Y272500D02*
X134600D01*
Y290500D01*
X127600D02*
X134600D01*
X160600Y241500D02*
Y321500D01*
X127600Y241500D02*
X160600D01*
X127600D02*
Y321500D01*
X160600D01*
X195862Y413508D02*
Y417507D01*
X189865D01*
Y413508D01*
X192864Y417507D02*
Y415507D01*
X194863Y407510D02*
X195862Y408509D01*
Y410509D01*
X194863Y411508D01*
X193863D01*
X192864Y410509D01*
Y408509D01*
X191864Y407510D01*
X190864D01*
X189865Y408509D01*
Y410509D01*
X190864Y411508D01*
X189865Y405510D02*
X195862D01*
Y402511D01*
X194863Y401512D01*
X192864D01*
X191864Y402511D01*
Y405510D01*
X194863Y399512D02*
X195862Y398513D01*
Y396513D01*
X194863Y395514D01*
X193863D01*
X192864Y396513D01*
Y397513D01*
Y396513D01*
X191864Y395514D01*
X190864D01*
X189865Y396513D01*
Y398513D01*
X190864Y399512D01*
X189865Y389515D02*
Y393514D01*
X193863Y389515D01*
X194863D01*
X195862Y390515D01*
Y392514D01*
X194863Y393514D01*
X304501Y318497D02*
X303501Y317497D01*
Y315498D01*
X304501Y314498D01*
X308499D01*
X309499Y315498D01*
Y317497D01*
X308499Y318497D01*
X303501Y323495D02*
Y321496D01*
X304501Y320496D01*
X308499D01*
X309499Y321496D01*
Y323495D01*
X308499Y324495D01*
X304501D01*
X303501Y323495D01*
X309499Y326494D02*
X303501D01*
X305500Y328494D01*
X303501Y330493D01*
X309499D01*
X310992Y428398D02*
X308993D01*
X309993D01*
Y423400D01*
X308993Y422400D01*
X307993D01*
X306994Y423400D01*
X316990Y428398D02*
X314991Y427398D01*
X312992Y425399D01*
Y423400D01*
X313991Y422400D01*
X315991D01*
X316990Y423400D01*
Y424399D01*
X315991Y425399D01*
X312992D01*
X371099Y428398D02*
X369099D01*
X370099D01*
Y423400D01*
X369099Y422400D01*
X368100D01*
X367100Y423400D01*
X377097Y428398D02*
X373098D01*
Y425399D01*
X375097Y426399D01*
X376097D01*
X377097Y425399D01*
Y423400D01*
X376097Y422400D01*
X374098D01*
X373098Y423400D01*
X182499Y336893D02*
Y338893D01*
Y337893D01*
X177501D01*
X176501Y338893D01*
Y339892D01*
X177501Y340892D01*
X176501Y331895D02*
X182499D01*
X179500Y334894D01*
Y330895D01*
X185499Y398606D02*
Y400605D01*
Y399606D01*
X180501D01*
X179501Y400605D01*
Y401605D01*
X180501Y402605D01*
X184499Y396607D02*
X185499Y395607D01*
Y393608D01*
X184499Y392608D01*
X183500D01*
X182500Y393608D01*
Y394607D01*
Y393608D01*
X181500Y392608D01*
X180501D01*
X179501Y393608D01*
Y395607D01*
X180501Y396607D01*
X184499Y254000D02*
Y255999D01*
Y254999D01*
X179501D01*
X178501Y255999D01*
Y256999D01*
X179501Y257998D01*
X178501Y248002D02*
Y252000D01*
X182500Y248002D01*
X183499D01*
X184499Y249001D01*
Y251001D01*
X183499Y252000D01*
X184499Y313106D02*
Y315106D01*
Y314106D01*
X179501D01*
X178501Y315106D01*
Y316105D01*
X179501Y317105D01*
X178501Y311107D02*
Y309108D01*
Y310107D01*
X184499D01*
X183499Y311107D01*
X363499Y217007D02*
X357501D01*
X359500Y219006D01*
X357501Y221005D01*
X363499D01*
Y224004D02*
Y226004D01*
X362499Y227003D01*
X360500D01*
X359500Y226004D01*
Y224004D01*
X360500Y223005D01*
X362499D01*
X363499Y224004D01*
X358501Y230002D02*
X359500D01*
Y229003D01*
Y231002D01*
Y230002D01*
X362499D01*
X363499Y231002D01*
Y235001D02*
Y237000D01*
X362499Y238000D01*
X360500D01*
X359500Y237000D01*
Y235001D01*
X360500Y234001D01*
X362499D01*
X363499Y235001D01*
X359500Y239999D02*
X363499D01*
X361500D01*
X360500Y240999D01*
X359500Y241999D01*
Y242998D01*
X363499Y245997D02*
X357501D01*
Y248996D01*
X358501Y249996D01*
X360500D01*
X361500Y248996D01*
Y245997D01*
Y247997D02*
X363499Y249996D01*
Y255994D02*
Y251995D01*
X359500Y255994D01*
X358501D01*
X357501Y254994D01*
Y252995D01*
X358501Y251995D01*
X317999Y285006D02*
X312001D01*
X314000Y287006D01*
X312001Y289005D01*
X317999D01*
Y292004D02*
Y294003D01*
X316999Y295003D01*
X315000D01*
X314000Y294003D01*
Y292004D01*
X315000Y291004D01*
X316999D01*
X317999Y292004D01*
X313001Y298002D02*
X314000D01*
Y297002D01*
Y299002D01*
Y298002D01*
X316999D01*
X317999Y299002D01*
Y303000D02*
Y305000D01*
X316999Y305999D01*
X315000D01*
X314000Y305000D01*
Y303000D01*
X315000Y302001D01*
X316999D01*
X317999Y303000D01*
X314000Y307999D02*
X317999D01*
X316000D01*
X315000Y308998D01*
X314000Y309998D01*
Y310998D01*
X312001Y313997D02*
X317999D01*
Y317996D01*
Y323994D02*
Y319995D01*
X314000Y323994D01*
X313001D01*
X312001Y322994D01*
Y320995D01*
X313001Y319995D01*
X165080Y383610D02*
X171078D01*
X169079Y381610D01*
X171078Y379611D01*
X165080D01*
Y376612D02*
Y374613D01*
X166080Y373613D01*
X168079D01*
X169079Y374613D01*
Y376612D01*
X168079Y377612D01*
X166080D01*
X165080Y376612D01*
X170079Y370614D02*
X169079D01*
Y371614D01*
Y369614D01*
Y370614D01*
X166080D01*
X165080Y369614D01*
Y365616D02*
Y363616D01*
X166080Y362616D01*
X168079D01*
X169079Y363616D01*
Y365616D01*
X168079Y366615D01*
X166080D01*
X165080Y365616D01*
X169079Y360617D02*
X165080D01*
X167080D01*
X168079Y359617D01*
X169079Y358618D01*
Y357618D01*
X171078Y354619D02*
Y350620D01*
X170079D01*
X166080Y354619D01*
X165080D01*
Y350620D01*
X164845Y297995D02*
X170844D01*
X168844Y295995D01*
X170844Y293996D01*
X164845D01*
Y290997D02*
Y288998D01*
X165845Y287998D01*
X167844D01*
X168844Y288998D01*
Y290997D01*
X167844Y291997D01*
X165845D01*
X164845Y290997D01*
X169844Y284999D02*
X168844D01*
Y285999D01*
Y283999D01*
Y284999D01*
X165845D01*
X164845Y283999D01*
Y280000D02*
Y278001D01*
X165845Y277002D01*
X167844D01*
X168844Y278001D01*
Y280000D01*
X167844Y281000D01*
X165845D01*
X164845Y280000D01*
X168844Y275002D02*
X164845D01*
X166845D01*
X167844Y274002D01*
X168844Y273003D01*
Y272003D01*
X170844Y269004D02*
X164845Y265005D01*
X170844D02*
X164845Y269004D01*
X363899Y416179D02*
Y410181D01*
X361900Y412180D01*
X359900Y410181D01*
Y416179D01*
X356901D02*
X354902D01*
X353902Y415179D01*
Y413180D01*
X354902Y412180D01*
X356901D01*
X357901Y413180D01*
Y415179D01*
X356901Y416179D01*
X350903Y411180D02*
Y412180D01*
X351903D01*
X349903D01*
X350903D01*
Y415179D01*
X349903Y416179D01*
X345905D02*
X343905D01*
X342906Y415179D01*
Y413180D01*
X343905Y412180D01*
X345905D01*
X346904Y413180D01*
Y415179D01*
X345905Y416179D01*
X340907Y412180D02*
Y416179D01*
Y414179D01*
X339907Y413180D01*
X338907Y412180D01*
X337907D01*
X330910Y411180D02*
X331909Y410181D01*
X333909D01*
X334908Y411180D01*
Y412180D01*
X333909Y413180D01*
X331909D01*
X330910Y414179D01*
Y415179D01*
X331909Y416179D01*
X333909D01*
X334908Y415179D01*
X315499Y219006D02*
X309501D01*
X311500Y221005D01*
X309501Y223005D01*
X315499D01*
Y226004D02*
Y228003D01*
X314499Y229003D01*
X312500D01*
X311500Y228003D01*
Y226004D01*
X312500Y225004D01*
X314499D01*
X315499Y226004D01*
X310501Y232002D02*
X311500D01*
Y231002D01*
Y233001D01*
Y232002D01*
X314499D01*
X315499Y233001D01*
Y237000D02*
Y239000D01*
X314499Y239999D01*
X312500D01*
X311500Y239000D01*
Y237000D01*
X312500Y236000D01*
X314499D01*
X315499Y237000D01*
X311500Y241999D02*
X315499D01*
X313500D01*
X312500Y242998D01*
X311500Y243998D01*
Y244998D01*
X315499Y247997D02*
X309501D01*
Y250996D01*
X310501Y251995D01*
X312500D01*
X313500Y250996D01*
Y247997D01*
Y249996D02*
X315499Y251995D01*
Y253995D02*
Y255994D01*
Y254994D01*
X309501D01*
X310501Y253995D01*
X179504Y206999D02*
Y202001D01*
X180503Y201001D01*
X182503D01*
X183502Y202001D01*
Y206999D01*
X185502Y201001D02*
Y205000D01*
X187501Y206999D01*
X189500Y205000D01*
Y201001D01*
Y204000D01*
X185502D01*
X191500Y201001D02*
Y206999D01*
X194499D01*
X195498Y205999D01*
Y204000D01*
X194499Y203000D01*
X191500D01*
X193499D02*
X195498Y201001D01*
X197498Y206999D02*
X201497D01*
X199497D01*
Y201001D01*
X225928Y207626D02*
X221929D01*
Y201627D01*
X225928D01*
X221929Y204627D02*
X223929D01*
X227927Y201627D02*
Y205626D01*
X230926D01*
X231926Y204627D01*
Y201627D01*
X237924Y205626D02*
X234925D01*
X233926Y204627D01*
Y202627D01*
X234925Y201627D01*
X237924D01*
X240923D02*
X242923D01*
X243922Y202627D01*
Y204627D01*
X242923Y205626D01*
X240923D01*
X239924Y204627D01*
Y202627D01*
X240923Y201627D01*
X249920Y207626D02*
Y201627D01*
X246921D01*
X245922Y202627D01*
Y204627D01*
X246921Y205626D01*
X249920D01*
X254919Y201627D02*
X252919D01*
X251920Y202627D01*
Y204627D01*
X252919Y205626D01*
X254919D01*
X255918Y204627D01*
Y203627D01*
X251920D01*
X257918Y205626D02*
Y201627D01*
Y203627D01*
X258917Y204627D01*
X259917Y205626D01*
X260917D01*
X279581Y201775D02*
Y207773D01*
X282580D01*
X283580Y206773D01*
Y204774D01*
X282580Y203774D01*
X279581D01*
X285579Y205773D02*
Y202775D01*
X286579Y201775D01*
X289578D01*
Y205773D01*
X291578Y201775D02*
Y205773D01*
X292577D01*
X293577Y204774D01*
Y201775D01*
Y204774D01*
X294577Y205773D01*
X295576Y204774D01*
Y201775D01*
X297576Y199776D02*
Y205773D01*
X300575D01*
X301574Y204774D01*
Y202775D01*
X300575Y201775D01*
X297576D01*
X128724Y232782D02*
Y238780D01*
X131723D01*
X132723Y237780D01*
Y235781D01*
X131723Y234781D01*
X128724D01*
X135722Y232782D02*
X137721D01*
X138721Y233781D01*
Y235781D01*
X137721Y236780D01*
X135722D01*
X134722Y235781D01*
Y233781D01*
X135722Y232782D01*
X140720Y236780D02*
Y233781D01*
X141720Y232782D01*
X142719Y233781D01*
X143719Y232782D01*
X144719Y233781D01*
Y236780D01*
X149717Y232782D02*
X147718D01*
X146718Y233781D01*
Y235781D01*
X147718Y236780D01*
X149717D01*
X150717Y235781D01*
Y234781D01*
X146718D01*
X152716Y236780D02*
Y232782D01*
Y234781D01*
X153716Y235781D01*
X154715Y236780D01*
X155715D01*
X183499Y229498D02*
Y233496D01*
X180500D01*
Y231497D01*
Y233496D01*
X177501D01*
X181500Y227498D02*
X178501D01*
X177501Y226499D01*
Y223500D01*
X181500D01*
X177501Y221500D02*
Y218501D01*
X178501Y217502D01*
X179500Y218501D01*
Y220501D01*
X180500Y221500D01*
X181500Y220501D01*
Y217502D01*
X177501Y212503D02*
Y214503D01*
X178501Y215502D01*
X180500D01*
X181500Y214503D01*
Y212503D01*
X180500Y211504D01*
X179500D01*
Y215502D01*
X363758Y305006D02*
X357760D01*
X359759Y307005D01*
X357760Y309005D01*
X363758D01*
Y312004D02*
Y314003D01*
X362758Y315003D01*
X360759D01*
X359759Y314003D01*
Y312004D01*
X360759Y311004D01*
X362758D01*
X363758Y312004D01*
X358759Y318002D02*
X359759D01*
Y317002D01*
Y319002D01*
Y318002D01*
X362758D01*
X363758Y319002D01*
Y323000D02*
Y324999D01*
X362758Y325999D01*
X360759D01*
X359759Y324999D01*
Y323000D01*
X360759Y322001D01*
X362758D01*
X363758Y323000D01*
X359759Y327998D02*
X363758D01*
X361758D01*
X360759Y328998D01*
X359759Y329998D01*
Y330998D01*
X357760Y333997D02*
X363758D01*
Y337995D01*
Y339995D02*
Y341994D01*
Y340994D01*
X357760D01*
X358759Y339995D01*
D13*
X165520Y214551D02*
X169063D01*
X165520D02*
Y233449D01*
X169063D01*
X176937Y214551D02*
X180480D01*
Y233449D01*
X176937D02*
X180480D01*
X128440Y227898D02*
X157967D01*
X128440Y188527D02*
Y227898D01*
Y188527D02*
X157967D01*
Y227898D01*
M02*
