G04*
G04 #@! TF.GenerationSoftware,Altium Limited,Altium Designer,21.6.4 (81)*
G04*
G04 Layer_Physical_Order=1*
G04 Layer_Color=255*
%FSLAX25Y25*%
%MOIN*%
G70*
G04*
G04 #@! TF.SameCoordinates,3774DA31-8614-4C77-8703-5363F9479B90*
G04*
G04*
G04 #@! TF.FilePolarity,Positive*
G04*
G01*
G75*
%ADD25C,0.02000*%
%ADD26C,0.06000*%
%ADD27R,0.07874X0.07874*%
%ADD28C,0.07874*%
%ADD29C,0.07000*%
%ADD30R,0.07000X0.07000*%
%ADD31C,0.06496*%
%ADD32R,0.06496X0.06496*%
%ADD33R,0.07000X0.07000*%
%ADD34C,0.05437*%
%ADD35C,0.08268*%
%ADD36C,0.05000*%
G36*
X407428Y166529D02*
X123335D01*
Y436471D01*
X407428D01*
Y166529D01*
D02*
G37*
%LPC*%
G36*
X397500Y432939D02*
X396146Y432806D01*
X394845Y432411D01*
X393645Y431770D01*
X392593Y430907D01*
X391730Y429855D01*
X391089Y428655D01*
X390694Y427354D01*
X390561Y426000D01*
X390694Y424646D01*
X391089Y423345D01*
X391730Y422145D01*
X392593Y421093D01*
X393645Y420230D01*
X394845Y419589D01*
X396146Y419194D01*
X397500Y419061D01*
X398854Y419194D01*
X400155Y419589D01*
X401355Y420230D01*
X402407Y421093D01*
X403269Y422145D01*
X403911Y423345D01*
X404306Y424646D01*
X404439Y426000D01*
X404306Y427354D01*
X403911Y428655D01*
X403269Y429855D01*
X402407Y430907D01*
X401355Y431770D01*
X400155Y432411D01*
X398854Y432806D01*
X397500Y432939D01*
D02*
G37*
G36*
X133500D02*
X132146Y432806D01*
X130845Y432411D01*
X129645Y431770D01*
X128593Y430907D01*
X127731Y429855D01*
X127089Y428655D01*
X126694Y427354D01*
X126561Y426000D01*
X126694Y424646D01*
X127089Y423345D01*
X127731Y422145D01*
X128593Y421093D01*
X129645Y420230D01*
X130845Y419589D01*
X132146Y419194D01*
X133500Y419061D01*
X134854Y419194D01*
X136155Y419589D01*
X137355Y420230D01*
X138407Y421093D01*
X139269Y422145D01*
X139911Y423345D01*
X140306Y424646D01*
X140439Y426000D01*
X140306Y427354D01*
X139911Y428655D01*
X139269Y429855D01*
X138407Y430907D01*
X137355Y431770D01*
X136155Y432411D01*
X134854Y432806D01*
X133500Y432939D01*
D02*
G37*
G36*
X371500Y418539D02*
X370325Y418384D01*
X369231Y417931D01*
X368291Y417209D01*
X367569Y416269D01*
X367116Y415175D01*
X366961Y414000D01*
X367116Y412825D01*
X367569Y411731D01*
X368291Y410791D01*
X369231Y410069D01*
X370325Y409616D01*
X371500Y409461D01*
X372675Y409616D01*
X373769Y410069D01*
X374709Y410791D01*
X375431Y411731D01*
X375884Y412825D01*
X376039Y414000D01*
X375884Y415175D01*
X375431Y416269D01*
X374709Y417209D01*
X373769Y417931D01*
X372675Y418384D01*
X371500Y418539D01*
D02*
G37*
G36*
X326500Y398539D02*
X325325Y398384D01*
X324231Y397931D01*
X323291Y397209D01*
X322569Y396269D01*
X322116Y395175D01*
X321961Y394000D01*
X322116Y392825D01*
X322569Y391731D01*
X323291Y390791D01*
X324231Y390069D01*
X325325Y389616D01*
X326500Y389461D01*
X327675Y389616D01*
X328769Y390069D01*
X329709Y390791D01*
X330431Y391731D01*
X330884Y392825D01*
X331039Y394000D01*
X330884Y395175D01*
X330431Y396269D01*
X329709Y397209D01*
X328769Y397931D01*
X327675Y398384D01*
X326500Y398539D01*
D02*
G37*
G36*
X143500Y392500D02*
X134500D01*
Y383500D01*
X143500D01*
Y392500D01*
D02*
G37*
G36*
X366500Y388539D02*
X365325Y388384D01*
X364231Y387931D01*
X363291Y387209D01*
X362569Y386269D01*
X362116Y385175D01*
X361961Y384000D01*
X362116Y382825D01*
X362569Y381731D01*
X363291Y380791D01*
X364231Y380069D01*
X365325Y379616D01*
X366500Y379461D01*
X367675Y379616D01*
X368769Y380069D01*
X369709Y380791D01*
X370431Y381731D01*
X370884Y382825D01*
X371039Y384000D01*
X370884Y385175D01*
X370431Y386269D01*
X369709Y387209D01*
X368769Y387931D01*
X367675Y388384D01*
X366500Y388539D01*
D02*
G37*
G36*
X356500Y398539D02*
X355325Y398384D01*
X354231Y397931D01*
X353291Y397209D01*
X352569Y396269D01*
X352116Y395175D01*
X351961Y394000D01*
X352116Y392825D01*
X352569Y391731D01*
X353291Y390791D01*
X354231Y390069D01*
X354461Y389974D01*
Y388026D01*
X354231Y387931D01*
X353291Y387209D01*
X352569Y386269D01*
X352116Y385175D01*
X351961Y384000D01*
X352116Y382825D01*
X352569Y381731D01*
X353291Y380791D01*
X354231Y380069D01*
X355325Y379616D01*
X356500Y379461D01*
X357675Y379616D01*
X358769Y380069D01*
X359709Y380791D01*
X360431Y381731D01*
X360884Y382825D01*
X361039Y384000D01*
X360884Y385175D01*
X360431Y386269D01*
X359709Y387209D01*
X358769Y387931D01*
X358539Y388026D01*
Y389974D01*
X358769Y390069D01*
X359709Y390791D01*
X360431Y391731D01*
X360884Y392825D01*
X361039Y394000D01*
X360884Y395175D01*
X360431Y396269D01*
X359709Y397209D01*
X358769Y397931D01*
X357675Y398384D01*
X356500Y398539D01*
D02*
G37*
G36*
X346500Y388539D02*
X345325Y388384D01*
X344231Y387931D01*
X343291Y387209D01*
X342569Y386269D01*
X342116Y385175D01*
X341961Y384000D01*
X342116Y382825D01*
X342569Y381731D01*
X343291Y380791D01*
X344231Y380069D01*
X345325Y379616D01*
X346500Y379461D01*
X347675Y379616D01*
X348769Y380069D01*
X349709Y380791D01*
X350431Y381731D01*
X350884Y382825D01*
X351039Y384000D01*
X350884Y385175D01*
X350431Y386269D01*
X349709Y387209D01*
X348769Y387931D01*
X347675Y388384D01*
X346500Y388539D01*
D02*
G37*
G36*
X326500D02*
X325325Y388384D01*
X324231Y387931D01*
X323291Y387209D01*
X322569Y386269D01*
X322116Y385175D01*
X321961Y384000D01*
X322116Y382825D01*
X322569Y381731D01*
X323291Y380791D01*
X324231Y380069D01*
X325325Y379616D01*
X326500Y379461D01*
X327675Y379616D01*
X328769Y380069D01*
X329709Y380791D01*
X330431Y381731D01*
X330884Y382825D01*
X331039Y384000D01*
X330884Y385175D01*
X330431Y386269D01*
X329709Y387209D01*
X328769Y387931D01*
X327675Y388384D01*
X326500Y388539D01*
D02*
G37*
G36*
X197937Y385937D02*
X188063D01*
Y376063D01*
X197937D01*
Y385937D01*
D02*
G37*
G36*
X139000Y382539D02*
X137825Y382384D01*
X136731Y381931D01*
X135791Y381209D01*
X135069Y380269D01*
X134616Y379175D01*
X134461Y378000D01*
X134616Y376825D01*
X135069Y375731D01*
X135791Y374791D01*
X136731Y374069D01*
X137825Y373616D01*
X139000Y373461D01*
X140175Y373616D01*
X141269Y374069D01*
X142209Y374791D01*
X142931Y375731D01*
X143384Y376825D01*
X143539Y378000D01*
X143384Y379175D01*
X142931Y380269D01*
X142209Y381209D01*
X141269Y381931D01*
X140175Y382384D01*
X139000Y382539D01*
D02*
G37*
G36*
Y372539D02*
X137825Y372384D01*
X136731Y371931D01*
X135791Y371209D01*
X135069Y370269D01*
X134616Y369175D01*
X134461Y368000D01*
X134616Y366825D01*
X135069Y365731D01*
X135791Y364791D01*
X136731Y364069D01*
X137825Y363616D01*
X139000Y363461D01*
X140175Y363616D01*
X141269Y364069D01*
X142209Y364791D01*
X142931Y365731D01*
X143384Y366825D01*
X143539Y368000D01*
X143384Y369175D01*
X142931Y370269D01*
X142209Y371209D01*
X141269Y371931D01*
X140175Y372384D01*
X139000Y372539D01*
D02*
G37*
G36*
Y362539D02*
X137825Y362384D01*
X136731Y361931D01*
X135791Y361209D01*
X135069Y360269D01*
X134616Y359175D01*
X134461Y358000D01*
X134616Y356825D01*
X134711Y356595D01*
X129782Y351666D01*
X129340Y351005D01*
X129185Y350224D01*
Y279276D01*
X129340Y278496D01*
X129782Y277834D01*
X134711Y272905D01*
X134616Y272675D01*
X134461Y271500D01*
X134616Y270325D01*
X135069Y269231D01*
X135791Y268291D01*
X136731Y267569D01*
X137825Y267116D01*
X139000Y266961D01*
X140175Y267116D01*
X141269Y267569D01*
X142209Y268291D01*
X142931Y269231D01*
X143384Y270325D01*
X143539Y271500D01*
X143384Y272675D01*
X142931Y273769D01*
X142209Y274709D01*
X141269Y275431D01*
X140175Y275884D01*
X139000Y276039D01*
X137825Y275884D01*
X137595Y275789D01*
X135502Y277881D01*
X135833Y278258D01*
X136126Y278033D01*
X136731Y277569D01*
X137825Y277116D01*
X139000Y276961D01*
X140175Y277116D01*
X141269Y277569D01*
X142209Y278291D01*
X142931Y279231D01*
X143384Y280325D01*
X143539Y281500D01*
X143384Y282675D01*
X142931Y283769D01*
X142209Y284709D01*
X141269Y285431D01*
X140175Y285884D01*
X139000Y286039D01*
X137825Y285884D01*
X136731Y285431D01*
X135791Y284709D01*
X135069Y283769D01*
X134616Y282675D01*
X134461Y281500D01*
X134616Y280325D01*
X135069Y279231D01*
X135533Y278626D01*
X135758Y278333D01*
X135381Y278002D01*
X133263Y280120D01*
Y349379D01*
X135381Y351498D01*
X135758Y351167D01*
X135533Y350874D01*
X135069Y350269D01*
X134616Y349175D01*
X134461Y348000D01*
X134616Y346825D01*
X135069Y345731D01*
X135791Y344791D01*
X136731Y344069D01*
X137825Y343616D01*
X139000Y343461D01*
X140175Y343616D01*
X141269Y344069D01*
X142209Y344791D01*
X142931Y345731D01*
X143384Y346825D01*
X143539Y348000D01*
X143384Y349175D01*
X142931Y350269D01*
X142209Y351209D01*
X141269Y351931D01*
X140175Y352384D01*
X139000Y352539D01*
X137825Y352384D01*
X136731Y351931D01*
X136126Y351466D01*
X135833Y351242D01*
X135502Y351619D01*
X137595Y353711D01*
X137825Y353616D01*
X139000Y353461D01*
X140175Y353616D01*
X141269Y354069D01*
X142209Y354791D01*
X142931Y355731D01*
X143384Y356825D01*
X143539Y358000D01*
X143384Y359175D01*
X142931Y360269D01*
X142209Y361209D01*
X141269Y361931D01*
X140175Y362384D01*
X139000Y362539D01*
D02*
G37*
G36*
X277878Y427917D02*
X277097Y427762D01*
X276436Y427319D01*
X198014Y348898D01*
X197590Y349182D01*
X197810Y349711D01*
X197980Y351000D01*
X197810Y352289D01*
X197312Y353490D01*
X196521Y354521D01*
X195490Y355312D01*
X194483Y355729D01*
Y356271D01*
X195490Y356687D01*
X196521Y357479D01*
X197312Y358510D01*
X197810Y359711D01*
X197980Y361000D01*
X197810Y362289D01*
X197312Y363490D01*
X196521Y364521D01*
X195490Y365313D01*
X194289Y365810D01*
X193000Y365980D01*
X191711Y365810D01*
X190510Y365313D01*
X189479Y364521D01*
X188688Y363490D01*
X188190Y362289D01*
X188020Y361000D01*
X188190Y359711D01*
X188688Y358510D01*
X189479Y357479D01*
X190510Y356687D01*
X191517Y356271D01*
Y355729D01*
X190510Y355312D01*
X189479Y354521D01*
X188688Y353490D01*
X188190Y352289D01*
X188020Y351000D01*
X188190Y349711D01*
X188688Y348510D01*
X189479Y347479D01*
X190510Y346688D01*
X191517Y346271D01*
Y345729D01*
X190510Y345312D01*
X189479Y344521D01*
X188688Y343490D01*
X188190Y342289D01*
X188020Y341000D01*
X188190Y339711D01*
X188688Y338510D01*
X189479Y337479D01*
X190510Y336687D01*
X191517Y336271D01*
Y335729D01*
X190510Y335313D01*
X189479Y334521D01*
X188688Y333490D01*
X188408Y332816D01*
X187800Y332653D01*
X187411Y332951D01*
X186559Y333304D01*
X185646Y333424D01*
X184732Y333304D01*
X183881Y332951D01*
X183150Y332390D01*
X182671Y331766D01*
X182202Y331877D01*
X182171Y331894D01*
Y355722D01*
X186371Y359923D01*
X186371Y359923D01*
X186813Y360584D01*
X186968Y361365D01*
Y389177D01*
X186813Y389958D01*
X186371Y390619D01*
X186371Y390619D01*
X175289Y401701D01*
X175384Y401932D01*
X175539Y403106D01*
X175384Y404281D01*
X174931Y405376D01*
X174209Y406316D01*
X173269Y407037D01*
X172175Y407491D01*
X171000Y407645D01*
X169825Y407491D01*
X168731Y407037D01*
X167791Y406316D01*
X167069Y405376D01*
X166616Y404281D01*
X166461Y403106D01*
X166616Y401932D01*
X167069Y400837D01*
X167791Y399897D01*
X168731Y399176D01*
X169825Y398722D01*
X171000Y398568D01*
X172175Y398722D01*
X172405Y398818D01*
X173154Y398068D01*
X172963Y397606D01*
X166500D01*
Y388606D01*
X175500D01*
Y395069D01*
X175962Y395261D01*
X182890Y388333D01*
Y362209D01*
X180606Y359926D01*
X180144Y360117D01*
Y378153D01*
X180601Y378504D01*
X181162Y379235D01*
X181515Y380086D01*
X181635Y381000D01*
X181515Y381914D01*
X181162Y382765D01*
X180601Y383496D01*
X179870Y384057D01*
X179019Y384410D01*
X178105Y384530D01*
X177191Y384410D01*
X176340Y384057D01*
X175609Y383496D01*
X175048Y382765D01*
X174695Y381914D01*
X174575Y381000D01*
X174695Y380086D01*
X175048Y379235D01*
X175609Y378504D01*
X176066Y378153D01*
Y359628D01*
X175689Y359251D01*
X175247Y358590D01*
X175092Y357809D01*
Y345774D01*
X174592Y345604D01*
X174209Y346103D01*
X173269Y346825D01*
X172175Y347278D01*
X171000Y347433D01*
X169825Y347278D01*
X168731Y346825D01*
X167791Y346103D01*
X167069Y345163D01*
X166616Y344069D01*
X166461Y342894D01*
X166616Y341719D01*
X167069Y340624D01*
X167457Y340119D01*
X167353Y339805D01*
X167204Y339628D01*
X167148Y339630D01*
X163939Y342839D01*
Y375100D01*
X163784Y375880D01*
X163342Y376542D01*
X163342Y376542D01*
X153289Y386595D01*
X153384Y386825D01*
X153539Y388000D01*
X153384Y389175D01*
X152931Y390269D01*
X152209Y391209D01*
X151269Y391931D01*
X150175Y392384D01*
X149000Y392539D01*
X147825Y392384D01*
X146731Y391931D01*
X145791Y391209D01*
X145069Y390269D01*
X144616Y389175D01*
X144461Y388000D01*
X144616Y386825D01*
X145069Y385731D01*
X145791Y384791D01*
X146731Y384069D01*
X147825Y383616D01*
X149000Y383461D01*
X150175Y383616D01*
X150405Y383711D01*
X152264Y381852D01*
X152266Y381796D01*
X152089Y381647D01*
X151775Y381543D01*
X151269Y381931D01*
X150175Y382384D01*
X149000Y382539D01*
X147825Y382384D01*
X146731Y381931D01*
X145791Y381209D01*
X145069Y380269D01*
X144616Y379175D01*
X144461Y378000D01*
X144616Y376825D01*
X145069Y375731D01*
X145791Y374791D01*
X146731Y374069D01*
X147825Y373616D01*
X149000Y373461D01*
X150175Y373616D01*
X150405Y373711D01*
X152498Y371619D01*
X152167Y371242D01*
X151874Y371466D01*
X151269Y371931D01*
X150175Y372384D01*
X149000Y372539D01*
X147825Y372384D01*
X146731Y371931D01*
X145791Y371209D01*
X145069Y370269D01*
X144616Y369175D01*
X144461Y368000D01*
X144616Y366825D01*
X145069Y365731D01*
X145791Y364791D01*
X146731Y364069D01*
X147825Y363616D01*
X149000Y363461D01*
X150175Y363616D01*
X151269Y364069D01*
X152209Y364791D01*
X152931Y365731D01*
X153384Y366825D01*
X153539Y368000D01*
X153384Y369175D01*
X152931Y370269D01*
X152466Y370874D01*
X152242Y371167D01*
X152619Y371498D01*
X155561Y368555D01*
Y286600D01*
X155716Y285820D01*
X156158Y285158D01*
X174045Y267271D01*
X173970Y266700D01*
X174090Y265786D01*
X174443Y264935D01*
X175004Y264204D01*
X175735Y263643D01*
X176586Y263290D01*
X177500Y263170D01*
X178414Y263290D01*
X179265Y263643D01*
X179996Y264204D01*
X180557Y264935D01*
X180910Y265786D01*
X181030Y266700D01*
X180910Y267614D01*
X180557Y268465D01*
X179996Y269196D01*
X179265Y269757D01*
X178414Y270110D01*
X177500Y270230D01*
X176929Y270155D01*
X159639Y287445D01*
Y340878D01*
X160139Y341029D01*
X160458Y340552D01*
X166500Y334510D01*
Y328394D01*
X175092D01*
Y323583D01*
X172405Y320895D01*
X172175Y320991D01*
X171000Y321145D01*
X169825Y320991D01*
X168731Y320537D01*
X167791Y319816D01*
X167069Y318876D01*
X166616Y317781D01*
X166461Y316606D01*
X166616Y315432D01*
X167069Y314337D01*
X167791Y313397D01*
X168731Y312676D01*
X169825Y312222D01*
X171000Y312068D01*
X172175Y312222D01*
X173269Y312676D01*
X174209Y313397D01*
X174931Y314337D01*
X175384Y315432D01*
X175539Y316606D01*
X175384Y317781D01*
X175289Y318011D01*
X177630Y320353D01*
X178092Y320162D01*
Y281464D01*
X177635Y281113D01*
X177074Y280382D01*
X176722Y279531D01*
X176601Y278617D01*
X176722Y277703D01*
X177074Y276852D01*
X177635Y276121D01*
X178366Y275560D01*
X179218Y275207D01*
X180131Y275087D01*
X181045Y275207D01*
X181896Y275560D01*
X182628Y276121D01*
X183189Y276852D01*
X183541Y277703D01*
X183662Y278617D01*
X183541Y279531D01*
X183189Y280382D01*
X182628Y281113D01*
X182171Y281464D01*
Y327893D01*
X182202Y327911D01*
X182671Y328022D01*
X183150Y327398D01*
X183607Y327047D01*
Y288354D01*
X183762Y287574D01*
X184204Y286912D01*
X188377Y282739D01*
X188190Y282289D01*
X188020Y281000D01*
X188190Y279711D01*
X188688Y278510D01*
X189479Y277479D01*
X190510Y276688D01*
X191517Y276271D01*
Y275729D01*
X190510Y275312D01*
X189479Y274521D01*
X188688Y273490D01*
X188190Y272289D01*
X188020Y271000D01*
X188190Y269711D01*
X188688Y268510D01*
X189479Y267479D01*
X190510Y266687D01*
X191517Y266271D01*
Y265729D01*
X190510Y265313D01*
X189479Y264521D01*
X188688Y263490D01*
X188190Y262289D01*
X188020Y261000D01*
X188190Y259711D01*
X188688Y258510D01*
X189479Y257479D01*
X190510Y256687D01*
X191517Y256271D01*
Y255729D01*
X190510Y255312D01*
X189479Y254521D01*
X188688Y253490D01*
X188190Y252289D01*
X188020Y251000D01*
X188190Y249711D01*
X188688Y248510D01*
X189479Y247479D01*
X190510Y246688D01*
X191517Y246271D01*
Y245729D01*
X190510Y245312D01*
X189479Y244521D01*
X188688Y243490D01*
X188190Y242289D01*
X188020Y241000D01*
X188190Y239711D01*
X188688Y238510D01*
X189479Y237479D01*
X190510Y236687D01*
X191711Y236190D01*
X193000Y236020D01*
X194289Y236190D01*
X195490Y236687D01*
X196521Y237479D01*
X197312Y238510D01*
X197810Y239711D01*
X197980Y241000D01*
X197810Y242289D01*
X197312Y243490D01*
X196521Y244521D01*
X195490Y245312D01*
X194483Y245729D01*
Y246271D01*
X195490Y246688D01*
X196521Y247479D01*
X197312Y248510D01*
X197810Y249711D01*
X197980Y251000D01*
X197810Y252289D01*
X197312Y253490D01*
X196521Y254521D01*
X195490Y255312D01*
X194483Y255729D01*
Y256271D01*
X195490Y256687D01*
X196521Y257479D01*
X197312Y258510D01*
X197810Y259711D01*
X197980Y261000D01*
X197810Y262289D01*
X197312Y263490D01*
X196521Y264521D01*
X195490Y265313D01*
X194483Y265729D01*
Y266271D01*
X195490Y266687D01*
X196521Y267479D01*
X197312Y268510D01*
X197810Y269711D01*
X197980Y271000D01*
X197810Y272289D01*
X197312Y273490D01*
X196521Y274521D01*
X195490Y275312D01*
X194483Y275729D01*
Y276271D01*
X195490Y276688D01*
X196521Y277479D01*
X197312Y278510D01*
X197810Y279711D01*
X197980Y281000D01*
X197810Y282289D01*
X197312Y283490D01*
X196521Y284521D01*
X195490Y285313D01*
X194483Y285729D01*
Y286271D01*
X195490Y286687D01*
X196521Y287479D01*
X197312Y288510D01*
X197810Y289711D01*
X197980Y291000D01*
X197810Y292289D01*
X197312Y293490D01*
X196521Y294521D01*
X195490Y295312D01*
X194483Y295729D01*
Y296271D01*
X195490Y296688D01*
X196521Y297479D01*
X197312Y298510D01*
X197810Y299711D01*
X197980Y301000D01*
X197810Y302289D01*
X197312Y303490D01*
X196521Y304521D01*
X195490Y305312D01*
X194483Y305729D01*
Y306271D01*
X195490Y306687D01*
X196521Y307479D01*
X197312Y308510D01*
X197810Y309711D01*
X197980Y311000D01*
X197810Y312289D01*
X197590Y312819D01*
X198014Y313102D01*
X199803Y311313D01*
Y187753D01*
X199700Y187711D01*
X198813Y187030D01*
X198132Y186142D01*
X197704Y185109D01*
X197558Y184000D01*
X197704Y182891D01*
X198132Y181858D01*
X198813Y180970D01*
X199700Y180289D01*
X200734Y179861D01*
X201843Y179715D01*
X202952Y179861D01*
X203985Y180289D01*
X204872Y180970D01*
X205553Y181858D01*
X205981Y182891D01*
X206127Y184000D01*
X205981Y185109D01*
X205553Y186142D01*
X204872Y187030D01*
X203985Y187711D01*
X203882Y187753D01*
Y217346D01*
X204382Y217498D01*
X204479Y217352D01*
X209449Y212382D01*
Y184800D01*
X203718Y179069D01*
X199814D01*
X196096Y182788D01*
X196139Y182891D01*
X196285Y184000D01*
X196139Y185109D01*
X195711Y186142D01*
X195030Y187030D01*
X194142Y187711D01*
X193109Y188139D01*
X192000Y188285D01*
X190891Y188139D01*
X189858Y187711D01*
X188970Y187030D01*
X188289Y186142D01*
X187861Y185109D01*
X187715Y184000D01*
X187861Y182891D01*
X188289Y181858D01*
X188970Y180970D01*
X189858Y180289D01*
X190891Y179861D01*
X192000Y179715D01*
X193109Y179861D01*
X193212Y179904D01*
X197528Y175588D01*
X198189Y175146D01*
X198970Y174991D01*
X204563D01*
X205343Y175146D01*
X206005Y175588D01*
X212930Y182513D01*
X213372Y183175D01*
X213527Y183955D01*
Y213227D01*
X213372Y214007D01*
X212930Y214669D01*
X209458Y218141D01*
X209650Y218602D01*
X277567D01*
X277705Y218630D01*
X278205Y218290D01*
Y210089D01*
X256212Y188096D01*
X256109Y188139D01*
X255000Y188285D01*
X253891Y188139D01*
X252858Y187711D01*
X251970Y187030D01*
X251289Y186142D01*
X250861Y185109D01*
X250715Y184000D01*
X250861Y182891D01*
X251289Y181858D01*
X251970Y180970D01*
X252858Y180289D01*
X253891Y179861D01*
X254697Y179755D01*
X254820Y179739D01*
X254790Y179273D01*
X254712Y179239D01*
X252802D01*
X249253Y182788D01*
X249296Y182891D01*
X249442Y184000D01*
X249296Y185109D01*
X248868Y186142D01*
X248187Y187030D01*
X247300Y187711D01*
X246266Y188139D01*
X245157Y188285D01*
X244048Y188139D01*
X243015Y187711D01*
X242128Y187030D01*
X241447Y186142D01*
X241019Y185109D01*
X240873Y184000D01*
X241019Y182891D01*
X241447Y181858D01*
X242128Y180970D01*
X243015Y180289D01*
X244048Y179861D01*
X245157Y179715D01*
X246266Y179861D01*
X246370Y179904D01*
X250516Y175758D01*
X250516Y175758D01*
X251177Y175316D01*
X251958Y175161D01*
X251958Y175161D01*
X260521D01*
X261301Y175316D01*
X261963Y175758D01*
X286720Y200515D01*
X287162Y201177D01*
X287317Y201957D01*
X287317Y201957D01*
Y262434D01*
X287986Y263102D01*
X288409Y262819D01*
X288190Y262289D01*
X288020Y261000D01*
X288190Y259711D01*
X288687Y258510D01*
X289479Y257479D01*
X290510Y256687D01*
X291517Y256271D01*
Y255729D01*
X290510Y255312D01*
X289479Y254521D01*
X288687Y253490D01*
X288190Y252289D01*
X288020Y251000D01*
X288190Y249711D01*
X288687Y248510D01*
X289479Y247479D01*
X290510Y246688D01*
X291517Y246271D01*
Y245729D01*
X290510Y245312D01*
X289479Y244521D01*
X288687Y243490D01*
X288190Y242289D01*
X288020Y241000D01*
X288190Y239711D01*
X288687Y238510D01*
X289479Y237479D01*
X290510Y236687D01*
X291711Y236190D01*
X293000Y236020D01*
X294289Y236190D01*
X295490Y236687D01*
X296521Y237479D01*
X297312Y238510D01*
X297810Y239711D01*
X297980Y241000D01*
X297810Y242289D01*
X297312Y243490D01*
X296521Y244521D01*
X295490Y245312D01*
X294483Y245729D01*
Y246271D01*
X295490Y246688D01*
X296521Y247479D01*
X297312Y248510D01*
X297810Y249711D01*
X297980Y251000D01*
X297810Y252289D01*
X297312Y253490D01*
X296521Y254521D01*
X295490Y255312D01*
X294483Y255729D01*
Y256271D01*
X295490Y256687D01*
X296521Y257479D01*
X297312Y258510D01*
X297810Y259711D01*
X297980Y261000D01*
X297810Y262289D01*
X297312Y263490D01*
X296521Y264521D01*
X295490Y265313D01*
X294483Y265729D01*
Y266271D01*
X295490Y266687D01*
X296521Y267479D01*
X297312Y268510D01*
X297810Y269711D01*
X297980Y271000D01*
X297810Y272289D01*
X297312Y273490D01*
X296521Y274521D01*
X295490Y275312D01*
X294483Y275729D01*
Y276271D01*
X295490Y276688D01*
X296521Y277479D01*
X297312Y278510D01*
X297810Y279711D01*
X297980Y281000D01*
X297810Y282289D01*
X297312Y283490D01*
X296521Y284521D01*
X295490Y285313D01*
X294483Y285729D01*
Y286271D01*
X295490Y286687D01*
X296521Y287479D01*
X297312Y288510D01*
X297810Y289711D01*
X297980Y291000D01*
X297810Y292289D01*
X297590Y292818D01*
X298014Y293102D01*
X298803Y292313D01*
Y186753D01*
X298700Y186711D01*
X297813Y186030D01*
X297132Y185142D01*
X296704Y184109D01*
X296558Y183000D01*
X296704Y181891D01*
X297132Y180858D01*
X297813Y179970D01*
X298700Y179289D01*
X299734Y178861D01*
X300843Y178715D01*
X301952Y178861D01*
X302985Y179289D01*
X303872Y179970D01*
X304553Y180858D01*
X304981Y181891D01*
X305127Y183000D01*
X304981Y184109D01*
X304553Y185142D01*
X303872Y186030D01*
X302985Y186711D01*
X302882Y186753D01*
Y293157D01*
X302727Y293938D01*
X302285Y294599D01*
X297623Y299261D01*
X297810Y299711D01*
X297980Y301000D01*
X297810Y302289D01*
X297590Y302818D01*
X298014Y303102D01*
X312386Y288730D01*
Y209043D01*
X311929Y208693D01*
X311368Y207961D01*
X311015Y207110D01*
X310895Y206196D01*
X311015Y205283D01*
X311368Y204431D01*
X311929Y203700D01*
X312660Y203139D01*
X313511Y202786D01*
X314425Y202666D01*
X315339Y202786D01*
X316190Y203139D01*
X316921Y203700D01*
X317482Y204431D01*
X317835Y205283D01*
X317955Y206196D01*
X317835Y207110D01*
X317482Y207961D01*
X316921Y208693D01*
X316464Y209043D01*
Y232538D01*
X316964Y232652D01*
X328711Y220905D01*
X328616Y220675D01*
X328461Y219500D01*
X328616Y218325D01*
X329069Y217231D01*
X329791Y216291D01*
X330731Y215569D01*
X331825Y215116D01*
X333000Y214961D01*
X334175Y215116D01*
X334405Y215211D01*
X338258Y211358D01*
X338920Y210916D01*
X339700Y210761D01*
X372300D01*
X373080Y210916D01*
X373742Y211358D01*
X377595Y215211D01*
X377825Y215116D01*
X379000Y214961D01*
X380175Y215116D01*
X381269Y215569D01*
X382209Y216291D01*
X382931Y217231D01*
X383384Y218325D01*
X383539Y219500D01*
X383384Y220675D01*
X382931Y221769D01*
X382209Y222709D01*
X381269Y223431D01*
X380175Y223884D01*
X379000Y224039D01*
X377825Y223884D01*
X376731Y223431D01*
X375791Y222709D01*
X375069Y221769D01*
X374616Y220675D01*
X374461Y219500D01*
X374616Y218325D01*
X374711Y218095D01*
X371455Y214839D01*
X347933D01*
X347500Y215000D01*
Y224000D01*
X338500D01*
Y217537D01*
X338038Y217346D01*
X337289Y218095D01*
X337384Y218325D01*
X337539Y219500D01*
X337384Y220675D01*
X336931Y221769D01*
X336209Y222709D01*
X335269Y223431D01*
X334175Y223884D01*
X333000Y224039D01*
X331825Y223884D01*
X331595Y223789D01*
X329502Y225881D01*
X329833Y226258D01*
X330126Y226033D01*
X330731Y225569D01*
X331825Y225116D01*
X333000Y224961D01*
X334175Y225116D01*
X335269Y225569D01*
X336209Y226291D01*
X336931Y227231D01*
X337384Y228325D01*
X337539Y229500D01*
X337384Y230675D01*
X336931Y231769D01*
X336209Y232709D01*
X335269Y233431D01*
X334175Y233884D01*
X333000Y234039D01*
X331825Y233884D01*
X330731Y233431D01*
X329791Y232709D01*
X329069Y231769D01*
X328616Y230675D01*
X328461Y229500D01*
X328616Y228325D01*
X329069Y227231D01*
X329534Y226626D01*
X329758Y226333D01*
X329381Y226002D01*
X320365Y235019D01*
Y395789D01*
X334062Y409486D01*
X334504Y410147D01*
X334659Y410928D01*
Y422408D01*
X334659Y422408D01*
X334504Y423188D01*
X334062Y423850D01*
X331060Y426852D01*
X330737Y427068D01*
X330416Y427286D01*
X330406Y427288D01*
X330398Y427294D01*
X330016Y427370D01*
X329637Y427449D01*
X328819Y427456D01*
X278734Y427917D01*
X278725Y427915D01*
X278715Y427917D01*
X277878D01*
X277878Y427917D01*
D02*
G37*
G36*
X149000Y352539D02*
X147825Y352384D01*
X146731Y351931D01*
X145791Y351209D01*
X145069Y350269D01*
X144616Y349175D01*
X144461Y348000D01*
X144616Y346825D01*
X145069Y345731D01*
X145791Y344791D01*
X146731Y344069D01*
X147825Y343616D01*
X149000Y343461D01*
X150175Y343616D01*
X151269Y344069D01*
X152209Y344791D01*
X152931Y345731D01*
X153384Y346825D01*
X153539Y348000D01*
X153384Y349175D01*
X152931Y350269D01*
X152209Y351209D01*
X151269Y351931D01*
X150175Y352384D01*
X149000Y352539D01*
D02*
G37*
G36*
X384911Y424328D02*
X364789D01*
X364009Y424173D01*
X363347Y423731D01*
X363347Y423731D01*
X337905Y398289D01*
X337675Y398384D01*
X336500Y398539D01*
X335325Y398384D01*
X334231Y397931D01*
X333291Y397209D01*
X332569Y396269D01*
X332116Y395175D01*
X331961Y394000D01*
X332116Y392825D01*
X332569Y391731D01*
X333291Y390791D01*
X334231Y390069D01*
X335325Y389616D01*
X336500Y389461D01*
X337675Y389616D01*
X338769Y390069D01*
X339709Y390791D01*
X340431Y391731D01*
X340884Y392825D01*
X341039Y394000D01*
X340884Y395175D01*
X340789Y395405D01*
X342881Y397498D01*
X343258Y397167D01*
X343034Y396874D01*
X342569Y396269D01*
X342116Y395175D01*
X341961Y394000D01*
X342116Y392825D01*
X342569Y391731D01*
X343291Y390791D01*
X344231Y390069D01*
X345325Y389616D01*
X346500Y389461D01*
X347675Y389616D01*
X348769Y390069D01*
X349709Y390791D01*
X350431Y391731D01*
X350884Y392825D01*
X351039Y394000D01*
X350884Y395175D01*
X350431Y396269D01*
X349709Y397209D01*
X348769Y397931D01*
X347675Y398384D01*
X346500Y398539D01*
X345325Y398384D01*
X344231Y397931D01*
X343626Y397466D01*
X343333Y397242D01*
X343002Y397619D01*
X365634Y420250D01*
X384066D01*
X385354Y418962D01*
X385163Y418500D01*
X377000D01*
Y409500D01*
X378463D01*
X378654Y409038D01*
X368116Y398500D01*
X362000D01*
Y389500D01*
X371000D01*
Y395616D01*
X382942Y407558D01*
X383384Y408220D01*
X383539Y409000D01*
Y409500D01*
X386000D01*
Y417663D01*
X386462Y417854D01*
X395461Y408855D01*
Y342845D01*
X392619Y340002D01*
X392242Y340333D01*
X392466Y340626D01*
X392931Y341231D01*
X393384Y342325D01*
X393539Y343500D01*
X393384Y344675D01*
X392931Y345769D01*
X392209Y346709D01*
X391269Y347431D01*
X390175Y347884D01*
X389000Y348039D01*
X387825Y347884D01*
X386731Y347431D01*
X385791Y346709D01*
X385069Y345769D01*
X384616Y344675D01*
X384461Y343500D01*
X384616Y342325D01*
X385069Y341231D01*
X385791Y340291D01*
X386731Y339569D01*
X387825Y339116D01*
X389000Y338961D01*
X390175Y339116D01*
X391269Y339569D01*
X391874Y340033D01*
X392167Y340258D01*
X392498Y339881D01*
X390405Y337789D01*
X390175Y337884D01*
X389000Y338039D01*
X387825Y337884D01*
X386731Y337431D01*
X385791Y336709D01*
X385069Y335769D01*
X384616Y334675D01*
X384461Y333500D01*
X384616Y332325D01*
X385069Y331231D01*
X385791Y330291D01*
X386731Y329569D01*
X387825Y329116D01*
X389000Y328961D01*
X390175Y329116D01*
X390405Y329211D01*
X392093Y327523D01*
X392079Y327439D01*
X391537Y327225D01*
X391269Y327431D01*
X390175Y327884D01*
X389000Y328039D01*
X387825Y327884D01*
X386731Y327431D01*
X385791Y326709D01*
X385069Y325769D01*
X384616Y324675D01*
X384461Y323500D01*
X384616Y322325D01*
X385069Y321231D01*
X385791Y320291D01*
X386731Y319569D01*
X387825Y319116D01*
X389000Y318961D01*
X390175Y319116D01*
X391269Y319569D01*
X391961Y320100D01*
X392461Y319853D01*
Y317147D01*
X391961Y316900D01*
X391269Y317431D01*
X390175Y317884D01*
X389000Y318039D01*
X387825Y317884D01*
X386731Y317431D01*
X385791Y316709D01*
X385069Y315769D01*
X384616Y314675D01*
X384461Y313500D01*
X384616Y312325D01*
X385069Y311231D01*
X385791Y310291D01*
X386731Y309569D01*
X387825Y309116D01*
X389000Y308961D01*
X390175Y309116D01*
X391269Y309569D01*
X391961Y310100D01*
X392461Y309853D01*
Y308000D01*
X384500D01*
Y299000D01*
X392461D01*
Y267342D01*
X392074Y267024D01*
X392000Y267039D01*
X358500D01*
X357720Y266884D01*
X357058Y266442D01*
X346619Y256002D01*
X346242Y256333D01*
X346466Y256626D01*
X346931Y257231D01*
X347384Y258325D01*
X347539Y259500D01*
X347384Y260675D01*
X346931Y261769D01*
X346209Y262709D01*
X345269Y263431D01*
X344175Y263884D01*
X343000Y264039D01*
X341825Y263884D01*
X340731Y263431D01*
X339791Y262709D01*
X339069Y261769D01*
X338616Y260675D01*
X338461Y259500D01*
X338616Y258325D01*
X339069Y257231D01*
X339791Y256291D01*
X340731Y255569D01*
X341825Y255116D01*
X343000Y254961D01*
X344175Y255116D01*
X345269Y255569D01*
X345874Y256033D01*
X346167Y256258D01*
X346498Y255881D01*
X344405Y253789D01*
X344175Y253884D01*
X343000Y254039D01*
X341825Y253884D01*
X340731Y253431D01*
X339791Y252709D01*
X339069Y251769D01*
X338616Y250675D01*
X338461Y249500D01*
X338616Y248325D01*
X339069Y247231D01*
X339791Y246291D01*
X340731Y245569D01*
X341825Y245116D01*
X343000Y244961D01*
X344175Y245116D01*
X345269Y245569D01*
X346209Y246291D01*
X346931Y247231D01*
X347384Y248325D01*
X347539Y249500D01*
X347384Y250675D01*
X347289Y250905D01*
X359345Y262961D01*
X375353D01*
X375600Y262461D01*
X375069Y261769D01*
X374616Y260675D01*
X374461Y259500D01*
X374616Y258325D01*
X375069Y257231D01*
X375791Y256291D01*
X376731Y255569D01*
X377825Y255116D01*
X379000Y254961D01*
X380175Y255116D01*
X381269Y255569D01*
X382209Y256291D01*
X382931Y257231D01*
X383384Y258325D01*
X383539Y259500D01*
X383384Y260675D01*
X382931Y261769D01*
X382400Y262461D01*
X382647Y262961D01*
X385353D01*
X385600Y262461D01*
X385069Y261769D01*
X384616Y260675D01*
X384461Y259500D01*
X384616Y258325D01*
X385069Y257231D01*
X385791Y256291D01*
X386731Y255569D01*
X387825Y255116D01*
X389000Y254961D01*
X390175Y255116D01*
X391269Y255569D01*
X391537Y255775D01*
X392079Y255560D01*
X392093Y255477D01*
X390405Y253789D01*
X390175Y253884D01*
X389000Y254039D01*
X387825Y253884D01*
X386731Y253431D01*
X385791Y252709D01*
X385069Y251769D01*
X384616Y250675D01*
X384461Y249500D01*
X384616Y248325D01*
X385069Y247231D01*
X385791Y246291D01*
X386731Y245569D01*
X387825Y245116D01*
X389000Y244961D01*
X390175Y245116D01*
X390405Y245211D01*
X392498Y243119D01*
X392167Y242742D01*
X391874Y242967D01*
X391269Y243431D01*
X390175Y243884D01*
X389000Y244039D01*
X387825Y243884D01*
X386731Y243431D01*
X385791Y242709D01*
X385069Y241769D01*
X384616Y240675D01*
X384461Y239500D01*
X384616Y238325D01*
X385069Y237231D01*
X385791Y236291D01*
X386731Y235569D01*
X387825Y235116D01*
X389000Y234961D01*
X390175Y235116D01*
X391269Y235569D01*
X392209Y236291D01*
X392931Y237231D01*
X393384Y238325D01*
X393539Y239500D01*
X393384Y240675D01*
X392931Y241769D01*
X392466Y242374D01*
X392242Y242667D01*
X392619Y242998D01*
X395790Y239826D01*
Y192774D01*
X378803Y175787D01*
X291254D01*
X285254Y181788D01*
X285296Y181891D01*
X285442Y183000D01*
X285296Y184109D01*
X284868Y185142D01*
X284187Y186030D01*
X283300Y186711D01*
X282267Y187139D01*
X281158Y187285D01*
X280049Y187139D01*
X279015Y186711D01*
X278128Y186030D01*
X277447Y185142D01*
X277019Y184109D01*
X276873Y183000D01*
X277019Y181891D01*
X277447Y180858D01*
X278128Y179970D01*
X279015Y179289D01*
X280049Y178861D01*
X281158Y178715D01*
X282267Y178861D01*
X282370Y178904D01*
X288968Y172306D01*
X289629Y171864D01*
X290410Y171709D01*
X379648D01*
X380428Y171864D01*
X381090Y172306D01*
X399271Y190487D01*
X399713Y191149D01*
X399868Y191929D01*
Y240671D01*
X399713Y241451D01*
X399271Y242113D01*
X399271Y242113D01*
X393289Y248095D01*
X393384Y248325D01*
X393539Y249500D01*
X393384Y250675D01*
X393289Y250905D01*
X395942Y253558D01*
X395942Y253558D01*
X396384Y254220D01*
X396539Y255000D01*
Y262500D01*
Y328000D01*
X396384Y328780D01*
X395942Y329442D01*
X395942Y329442D01*
X393289Y332095D01*
X393384Y332325D01*
X393539Y333500D01*
X393384Y334675D01*
X393289Y334905D01*
X398942Y340558D01*
X398942Y340558D01*
X399384Y341220D01*
X399539Y342000D01*
X399539Y342000D01*
Y409700D01*
X399384Y410480D01*
X398942Y411142D01*
X386353Y423731D01*
X385691Y424173D01*
X384911Y424328D01*
D02*
G37*
G36*
X379000Y348039D02*
X377825Y347884D01*
X376731Y347431D01*
X375791Y346709D01*
X375069Y345769D01*
X374616Y344675D01*
X374461Y343500D01*
X374616Y342325D01*
X375069Y341231D01*
X375791Y340291D01*
X376731Y339569D01*
X377825Y339116D01*
X379000Y338961D01*
X380175Y339116D01*
X381269Y339569D01*
X382209Y340291D01*
X382931Y341231D01*
X383384Y342325D01*
X383539Y343500D01*
X383384Y344675D01*
X382931Y345769D01*
X382209Y346709D01*
X381269Y347431D01*
X380175Y347884D01*
X379000Y348039D01*
D02*
G37*
G36*
X343000D02*
X341825Y347884D01*
X340731Y347431D01*
X339791Y346709D01*
X339069Y345769D01*
X338616Y344675D01*
X338461Y343500D01*
X338616Y342325D01*
X339069Y341231D01*
X339791Y340291D01*
X340731Y339569D01*
X341825Y339116D01*
X343000Y338961D01*
X344175Y339116D01*
X345269Y339569D01*
X346209Y340291D01*
X346931Y341231D01*
X347384Y342325D01*
X347539Y343500D01*
X347384Y344675D01*
X346931Y345769D01*
X346209Y346709D01*
X345269Y347431D01*
X344175Y347884D01*
X343000Y348039D01*
D02*
G37*
G36*
X333000D02*
X331825Y347884D01*
X330731Y347431D01*
X329791Y346709D01*
X329069Y345769D01*
X328616Y344675D01*
X328461Y343500D01*
X328616Y342325D01*
X329069Y341231D01*
X329791Y340291D01*
X330731Y339569D01*
X331825Y339116D01*
X333000Y338961D01*
X334175Y339116D01*
X335269Y339569D01*
X336209Y340291D01*
X336931Y341231D01*
X337384Y342325D01*
X337539Y343500D01*
X337384Y344675D01*
X336931Y345769D01*
X336209Y346709D01*
X335269Y347431D01*
X334175Y347884D01*
X333000Y348039D01*
D02*
G37*
G36*
X343000Y338039D02*
X341825Y337884D01*
X340731Y337431D01*
X339791Y336709D01*
X339069Y335769D01*
X338616Y334675D01*
X338461Y333500D01*
X338616Y332325D01*
X339069Y331231D01*
X339791Y330291D01*
X340731Y329569D01*
X341825Y329116D01*
X343000Y328961D01*
X344175Y329116D01*
X345269Y329569D01*
X346209Y330291D01*
X346931Y331231D01*
X347384Y332325D01*
X347539Y333500D01*
X347384Y334675D01*
X346931Y335769D01*
X346209Y336709D01*
X345269Y337431D01*
X344175Y337884D01*
X343000Y338039D01*
D02*
G37*
G36*
X379000Y328039D02*
X377825Y327884D01*
X376731Y327431D01*
X375791Y326709D01*
X375069Y325769D01*
X374616Y324675D01*
X374461Y323500D01*
X374616Y322325D01*
X375069Y321231D01*
X375791Y320291D01*
X376731Y319569D01*
X377825Y319116D01*
X379000Y318961D01*
X380175Y319116D01*
X381269Y319569D01*
X382209Y320291D01*
X382931Y321231D01*
X383384Y322325D01*
X383539Y323500D01*
X383384Y324675D01*
X382931Y325769D01*
X382209Y326709D01*
X381269Y327431D01*
X380175Y327884D01*
X379000Y328039D01*
D02*
G37*
G36*
X343000D02*
X341825Y327884D01*
X340731Y327431D01*
X339791Y326709D01*
X339069Y325769D01*
X338616Y324675D01*
X338461Y323500D01*
X338616Y322325D01*
X339069Y321231D01*
X339791Y320291D01*
X340731Y319569D01*
X341825Y319116D01*
X343000Y318961D01*
X344175Y319116D01*
X345269Y319569D01*
X346209Y320291D01*
X346931Y321231D01*
X347384Y322325D01*
X347539Y323500D01*
X347384Y324675D01*
X346931Y325769D01*
X346209Y326709D01*
X345269Y327431D01*
X344175Y327884D01*
X343000Y328039D01*
D02*
G37*
G36*
X333000D02*
X331825Y327884D01*
X330731Y327431D01*
X329791Y326709D01*
X329069Y325769D01*
X328616Y324675D01*
X328461Y323500D01*
X328616Y322325D01*
X329069Y321231D01*
X329791Y320291D01*
X330731Y319569D01*
X331825Y319116D01*
X333000Y318961D01*
X334175Y319116D01*
X335269Y319569D01*
X336209Y320291D01*
X336931Y321231D01*
X337384Y322325D01*
X337539Y323500D01*
X337384Y324675D01*
X336931Y325769D01*
X336209Y326709D01*
X335269Y327431D01*
X334175Y327884D01*
X333000Y328039D01*
D02*
G37*
G36*
X379000Y318039D02*
X377825Y317884D01*
X376731Y317431D01*
X375791Y316709D01*
X375069Y315769D01*
X374616Y314675D01*
X374461Y313500D01*
X374616Y312325D01*
X375069Y311231D01*
X375791Y310291D01*
X376731Y309569D01*
X377825Y309116D01*
X379000Y308961D01*
X380175Y309116D01*
X381269Y309569D01*
X382209Y310291D01*
X382931Y311231D01*
X383384Y312325D01*
X383539Y313500D01*
X383384Y314675D01*
X382931Y315769D01*
X382209Y316709D01*
X381269Y317431D01*
X380175Y317884D01*
X379000Y318039D01*
D02*
G37*
G36*
X343000D02*
X341825Y317884D01*
X340731Y317431D01*
X339791Y316709D01*
X339069Y315769D01*
X338616Y314675D01*
X338461Y313500D01*
X338616Y312325D01*
X339069Y311231D01*
X339791Y310291D01*
X340731Y309569D01*
X341825Y309116D01*
X343000Y308961D01*
X344175Y309116D01*
X345269Y309569D01*
X346209Y310291D01*
X346931Y311231D01*
X347384Y312325D01*
X347539Y313500D01*
X347384Y314675D01*
X346931Y315769D01*
X346209Y316709D01*
X345269Y317431D01*
X344175Y317884D01*
X343000Y318039D01*
D02*
G37*
G36*
X333000D02*
X331825Y317884D01*
X330731Y317431D01*
X329791Y316709D01*
X329069Y315769D01*
X328616Y314675D01*
X328461Y313500D01*
X328616Y312325D01*
X329069Y311231D01*
X329791Y310291D01*
X330731Y309569D01*
X331825Y309116D01*
X333000Y308961D01*
X334175Y309116D01*
X335269Y309569D01*
X336209Y310291D01*
X336931Y311231D01*
X337384Y312325D01*
X337539Y313500D01*
X337384Y314675D01*
X336931Y315769D01*
X336209Y316709D01*
X335269Y317431D01*
X334175Y317884D01*
X333000Y318039D01*
D02*
G37*
G36*
X175500Y311106D02*
X166500D01*
Y302106D01*
X175500D01*
Y311106D01*
D02*
G37*
G36*
X379000Y308039D02*
X377825Y307884D01*
X376731Y307431D01*
X375791Y306709D01*
X375069Y305769D01*
X374616Y304675D01*
X374461Y303500D01*
X374616Y302325D01*
X374711Y302095D01*
X371149Y298533D01*
X347580D01*
X347500Y299000D01*
X347500D01*
Y308000D01*
X338500D01*
Y301537D01*
X338038Y301346D01*
X337289Y302095D01*
X337384Y302325D01*
X337539Y303500D01*
X337384Y304675D01*
X336931Y305769D01*
X336209Y306709D01*
X335269Y307431D01*
X334175Y307884D01*
X333000Y308039D01*
X331825Y307884D01*
X330731Y307431D01*
X329791Y306709D01*
X329069Y305769D01*
X328616Y304675D01*
X328461Y303500D01*
X328616Y302325D01*
X329069Y301231D01*
X329791Y300291D01*
X330731Y299569D01*
X331825Y299116D01*
X333000Y298961D01*
X334175Y299116D01*
X334405Y299211D01*
X338564Y295052D01*
X338564Y295052D01*
X339226Y294610D01*
X340006Y294455D01*
X371994D01*
X372774Y294610D01*
X373436Y295052D01*
X377595Y299211D01*
X377825Y299116D01*
X379000Y298961D01*
X380175Y299116D01*
X381269Y299569D01*
X382209Y300291D01*
X382931Y301231D01*
X383384Y302325D01*
X383539Y303500D01*
X383384Y304675D01*
X382931Y305769D01*
X382209Y306709D01*
X381269Y307431D01*
X380175Y307884D01*
X379000Y308039D01*
D02*
G37*
G36*
X143500Y306000D02*
X134500D01*
Y297000D01*
X143500D01*
Y306000D01*
D02*
G37*
G36*
X149000Y306039D02*
X147825Y305884D01*
X146731Y305431D01*
X145791Y304709D01*
X145069Y303769D01*
X144616Y302675D01*
X144461Y301500D01*
X144616Y300325D01*
X145069Y299231D01*
X145791Y298291D01*
X146731Y297569D01*
X147825Y297116D01*
X149000Y296961D01*
X150175Y297116D01*
X151269Y297569D01*
X152209Y298291D01*
X152931Y299231D01*
X153384Y300325D01*
X153539Y301500D01*
X153384Y302675D01*
X152931Y303769D01*
X152209Y304709D01*
X151269Y305431D01*
X150175Y305884D01*
X149000Y306039D01*
D02*
G37*
G36*
Y296039D02*
X147825Y295884D01*
X146731Y295431D01*
X145791Y294709D01*
X145069Y293769D01*
X144616Y292675D01*
X144461Y291500D01*
X144616Y290325D01*
X145069Y289231D01*
X145791Y288291D01*
X146731Y287569D01*
X147825Y287116D01*
X149000Y286961D01*
X150175Y287116D01*
X151269Y287569D01*
X152209Y288291D01*
X152931Y289231D01*
X153384Y290325D01*
X153539Y291500D01*
X153384Y292675D01*
X152931Y293769D01*
X152209Y294709D01*
X151269Y295431D01*
X150175Y295884D01*
X149000Y296039D01*
D02*
G37*
G36*
X139000D02*
X137825Y295884D01*
X136731Y295431D01*
X135791Y294709D01*
X135069Y293769D01*
X134616Y292675D01*
X134461Y291500D01*
X134616Y290325D01*
X135069Y289231D01*
X135791Y288291D01*
X136731Y287569D01*
X137825Y287116D01*
X139000Y286961D01*
X140175Y287116D01*
X141269Y287569D01*
X142209Y288291D01*
X142931Y289231D01*
X143384Y290325D01*
X143539Y291500D01*
X143384Y292675D01*
X142931Y293769D01*
X142209Y294709D01*
X141269Y295431D01*
X140175Y295884D01*
X139000Y296039D01*
D02*
G37*
G36*
X149000Y286039D02*
X147825Y285884D01*
X146731Y285431D01*
X145791Y284709D01*
X145069Y283769D01*
X144616Y282675D01*
X144461Y281500D01*
X144616Y280325D01*
X145069Y279231D01*
X145791Y278291D01*
X146731Y277569D01*
X147825Y277116D01*
X149000Y276961D01*
X150175Y277116D01*
X151269Y277569D01*
X152209Y278291D01*
X152931Y279231D01*
X153384Y280325D01*
X153539Y281500D01*
X153384Y282675D01*
X152931Y283769D01*
X152209Y284709D01*
X151269Y285431D01*
X150175Y285884D01*
X149000Y286039D01*
D02*
G37*
G36*
Y266039D02*
X147825Y265884D01*
X146731Y265431D01*
X145791Y264709D01*
X145069Y263769D01*
X144616Y262675D01*
X144461Y261500D01*
X144616Y260325D01*
X145069Y259231D01*
X145791Y258291D01*
X146731Y257569D01*
X147825Y257116D01*
X149000Y256961D01*
X150175Y257116D01*
X151269Y257569D01*
X152209Y258291D01*
X152931Y259231D01*
X153384Y260325D01*
X153539Y261500D01*
X153384Y262675D01*
X152931Y263769D01*
X152209Y264709D01*
X151269Y265431D01*
X150175Y265884D01*
X149000Y266039D01*
D02*
G37*
G36*
X139000D02*
X137825Y265884D01*
X136731Y265431D01*
X135791Y264709D01*
X135069Y263769D01*
X134616Y262675D01*
X134461Y261500D01*
X134616Y260325D01*
X135069Y259231D01*
X135791Y258291D01*
X136731Y257569D01*
X137825Y257116D01*
X139000Y256961D01*
X140175Y257116D01*
X141269Y257569D01*
X142209Y258291D01*
X142931Y259231D01*
X143384Y260325D01*
X143539Y261500D01*
X143384Y262675D01*
X142931Y263769D01*
X142209Y264709D01*
X141269Y265431D01*
X140175Y265884D01*
X139000Y266039D01*
D02*
G37*
G36*
X333000Y264039D02*
X331825Y263884D01*
X330731Y263431D01*
X329791Y262709D01*
X329069Y261769D01*
X328616Y260675D01*
X328461Y259500D01*
X328616Y258325D01*
X329069Y257231D01*
X329791Y256291D01*
X330731Y255569D01*
X331825Y255116D01*
X333000Y254961D01*
X334175Y255116D01*
X335269Y255569D01*
X336209Y256291D01*
X336931Y257231D01*
X337384Y258325D01*
X337539Y259500D01*
X337384Y260675D01*
X336931Y261769D01*
X336209Y262709D01*
X335269Y263431D01*
X334175Y263884D01*
X333000Y264039D01*
D02*
G37*
G36*
X379000Y244039D02*
X377825Y243884D01*
X376731Y243431D01*
X375791Y242709D01*
X375069Y241769D01*
X374616Y240675D01*
X374461Y239500D01*
X374616Y238325D01*
X375069Y237231D01*
X375791Y236291D01*
X376731Y235569D01*
X377825Y235116D01*
X379000Y234961D01*
X380175Y235116D01*
X381269Y235569D01*
X382209Y236291D01*
X382931Y237231D01*
X383384Y238325D01*
X383539Y239500D01*
X383384Y240675D01*
X382931Y241769D01*
X382209Y242709D01*
X381269Y243431D01*
X380175Y243884D01*
X379000Y244039D01*
D02*
G37*
G36*
X343000D02*
X341825Y243884D01*
X340731Y243431D01*
X339791Y242709D01*
X339069Y241769D01*
X338616Y240675D01*
X338461Y239500D01*
X338616Y238325D01*
X339069Y237231D01*
X339791Y236291D01*
X340731Y235569D01*
X341825Y235116D01*
X343000Y234961D01*
X344175Y235116D01*
X345269Y235569D01*
X346209Y236291D01*
X346931Y237231D01*
X347384Y238325D01*
X347539Y239500D01*
X347384Y240675D01*
X346931Y241769D01*
X346209Y242709D01*
X345269Y243431D01*
X344175Y243884D01*
X343000Y244039D01*
D02*
G37*
G36*
X333000D02*
X331825Y243884D01*
X330731Y243431D01*
X329791Y242709D01*
X329069Y241769D01*
X328616Y240675D01*
X328461Y239500D01*
X328616Y238325D01*
X329069Y237231D01*
X329791Y236291D01*
X330731Y235569D01*
X331825Y235116D01*
X333000Y234961D01*
X334175Y235116D01*
X335269Y235569D01*
X336209Y236291D01*
X336931Y237231D01*
X337384Y238325D01*
X337539Y239500D01*
X337384Y240675D01*
X336931Y241769D01*
X336209Y242709D01*
X335269Y243431D01*
X334175Y243884D01*
X333000Y244039D01*
D02*
G37*
G36*
X173000Y237593D02*
X172029Y237465D01*
X171125Y237091D01*
X170348Y236495D01*
X169752Y235718D01*
X169377Y234813D01*
X169249Y233843D01*
X169350Y233077D01*
X166358Y230084D01*
X165916Y229423D01*
X165761Y228643D01*
Y198357D01*
X165916Y197577D01*
X166358Y196915D01*
X178061Y185212D01*
X178019Y185109D01*
X177873Y184000D01*
X178019Y182891D01*
X178447Y181858D01*
X179128Y180970D01*
X180015Y180289D01*
X181048Y179861D01*
X182157Y179715D01*
X183266Y179861D01*
X184300Y180289D01*
X185187Y180970D01*
X185868Y181858D01*
X186296Y182891D01*
X186442Y184000D01*
X186296Y185109D01*
X185868Y186142D01*
X185187Y187030D01*
X184300Y187711D01*
X183266Y188139D01*
X182157Y188285D01*
X181048Y188139D01*
X180945Y188096D01*
X169839Y199202D01*
Y211391D01*
X170313Y211551D01*
X170348Y211505D01*
X171125Y210909D01*
X172029Y210535D01*
X173000Y210407D01*
X173971Y210535D01*
X174875Y210909D01*
X175652Y211505D01*
X176248Y212282D01*
X176623Y213187D01*
X176751Y214157D01*
X176623Y215128D01*
X176248Y216033D01*
X175652Y216810D01*
X174875Y217406D01*
X173971Y217780D01*
X173000Y217908D01*
X172029Y217780D01*
X171125Y217406D01*
X170348Y216810D01*
X170313Y216763D01*
X169839Y216924D01*
Y227798D01*
X172234Y230193D01*
X173000Y230092D01*
X173971Y230220D01*
X174875Y230594D01*
X175652Y231190D01*
X176248Y231967D01*
X176623Y232872D01*
X176751Y233843D01*
X176623Y234813D01*
X176248Y235718D01*
X175652Y236495D01*
X174875Y237091D01*
X173971Y237465D01*
X173000Y237593D01*
D02*
G37*
G36*
X389000Y234039D02*
X387825Y233884D01*
X386731Y233431D01*
X385791Y232709D01*
X385069Y231769D01*
X384616Y230675D01*
X384461Y229500D01*
X384616Y228325D01*
X385069Y227231D01*
X385791Y226291D01*
X386731Y225569D01*
X387825Y225116D01*
X389000Y224961D01*
X390175Y225116D01*
X391269Y225569D01*
X392209Y226291D01*
X392931Y227231D01*
X393384Y228325D01*
X393539Y229500D01*
X393384Y230675D01*
X392931Y231769D01*
X392209Y232709D01*
X391269Y233431D01*
X390175Y233884D01*
X389000Y234039D01*
D02*
G37*
G36*
X379000D02*
X377825Y233884D01*
X376731Y233431D01*
X375791Y232709D01*
X375069Y231769D01*
X374616Y230675D01*
X374461Y229500D01*
X374616Y228325D01*
X375069Y227231D01*
X375791Y226291D01*
X376731Y225569D01*
X377825Y225116D01*
X379000Y224961D01*
X380175Y225116D01*
X381269Y225569D01*
X382209Y226291D01*
X382931Y227231D01*
X383384Y228325D01*
X383539Y229500D01*
X383384Y230675D01*
X382931Y231769D01*
X382209Y232709D01*
X381269Y233431D01*
X380175Y233884D01*
X379000Y234039D01*
D02*
G37*
G36*
X343000D02*
X341825Y233884D01*
X340731Y233431D01*
X339791Y232709D01*
X339069Y231769D01*
X338616Y230675D01*
X338461Y229500D01*
X338616Y228325D01*
X339069Y227231D01*
X339791Y226291D01*
X340731Y225569D01*
X341825Y225116D01*
X343000Y224961D01*
X344175Y225116D01*
X345269Y225569D01*
X346209Y226291D01*
X346931Y227231D01*
X347384Y228325D01*
X347539Y229500D01*
X347384Y230675D01*
X346931Y231769D01*
X346209Y232709D01*
X345269Y233431D01*
X344175Y233884D01*
X343000Y234039D01*
D02*
G37*
G36*
X393500Y224000D02*
X384500D01*
Y215000D01*
X393500D01*
Y224000D01*
D02*
G37*
G36*
X142219Y223233D02*
X140879Y223057D01*
X139630Y222539D01*
X138558Y221716D01*
X137735Y220644D01*
X137218Y219395D01*
X137041Y218055D01*
X137218Y216715D01*
X137735Y215466D01*
X138558Y214393D01*
X139630Y213571D01*
X140879Y213053D01*
X142219Y212877D01*
X143560Y213053D01*
X144809Y213571D01*
X145881Y214393D01*
X146704Y215466D01*
X147221Y216715D01*
X147398Y218055D01*
X147221Y219395D01*
X146704Y220644D01*
X145881Y221716D01*
X144809Y222539D01*
X143560Y223057D01*
X142219Y223233D01*
D02*
G37*
G36*
X171000Y260933D02*
X169825Y260778D01*
X168731Y260325D01*
X167791Y259603D01*
X167069Y258663D01*
X166616Y257569D01*
X166461Y256394D01*
X166616Y255219D01*
X167069Y254124D01*
X167791Y253184D01*
X168731Y252463D01*
X169825Y252010D01*
X171000Y251855D01*
X172175Y252010D01*
X172405Y252105D01*
X173154Y251356D01*
X172963Y250894D01*
X166500D01*
Y241894D01*
X175500D01*
Y248357D01*
X175962Y248548D01*
X180141Y244369D01*
Y220920D01*
X180296Y220140D01*
X180738Y219478D01*
X187370Y212847D01*
X187298Y212301D01*
X187418Y211387D01*
X187771Y210536D01*
X188332Y209805D01*
X189063Y209243D01*
X189914Y208891D01*
X190828Y208771D01*
X191742Y208891D01*
X192593Y209243D01*
X193324Y209805D01*
X193885Y210536D01*
X194238Y211387D01*
X194358Y212301D01*
X194238Y213214D01*
X193885Y214066D01*
X193324Y214797D01*
X192593Y215358D01*
X191742Y215711D01*
X190828Y215831D01*
X190231Y215753D01*
X184219Y221765D01*
Y245214D01*
X184064Y245994D01*
X183622Y246656D01*
X175289Y254989D01*
X175384Y255219D01*
X175539Y256394D01*
X175384Y257569D01*
X174931Y258663D01*
X174209Y259603D01*
X173269Y260325D01*
X172175Y260778D01*
X171000Y260933D01*
D02*
G37*
G36*
X235315Y188285D02*
X234206Y188139D01*
X233172Y187711D01*
X232285Y187030D01*
X231604Y186142D01*
X231176Y185109D01*
X231030Y184000D01*
X231176Y182891D01*
X231604Y181858D01*
X232285Y180970D01*
X233172Y180289D01*
X234206Y179861D01*
X235315Y179715D01*
X236424Y179861D01*
X237457Y180289D01*
X238345Y180970D01*
X239025Y181858D01*
X239454Y182891D01*
X239599Y184000D01*
X239454Y185109D01*
X239025Y186142D01*
X238345Y187030D01*
X237457Y187711D01*
X236424Y188139D01*
X235315Y188285D01*
D02*
G37*
G36*
X398500Y183439D02*
X397146Y183306D01*
X395845Y182911D01*
X394645Y182270D01*
X393593Y181407D01*
X392730Y180355D01*
X392089Y179155D01*
X391694Y177854D01*
X391561Y176500D01*
X391694Y175146D01*
X392089Y173845D01*
X392730Y172645D01*
X393593Y171593D01*
X394645Y170730D01*
X395845Y170089D01*
X397146Y169694D01*
X398500Y169561D01*
X399854Y169694D01*
X401155Y170089D01*
X402355Y170730D01*
X403407Y171593D01*
X404270Y172645D01*
X404911Y173845D01*
X405306Y175146D01*
X405439Y176500D01*
X405306Y177854D01*
X404911Y179155D01*
X404270Y180355D01*
X403407Y181407D01*
X402355Y182270D01*
X401155Y182911D01*
X399854Y183306D01*
X398500Y183439D01*
D02*
G37*
G36*
X133500D02*
X132146Y183306D01*
X130845Y182911D01*
X129645Y182270D01*
X128593Y181407D01*
X127731Y180355D01*
X127089Y179155D01*
X126694Y177854D01*
X126561Y176500D01*
X126694Y175146D01*
X127089Y173845D01*
X127731Y172645D01*
X128593Y171593D01*
X129645Y170730D01*
X130845Y170089D01*
X132146Y169694D01*
X133500Y169561D01*
X134854Y169694D01*
X136155Y170089D01*
X137355Y170730D01*
X138407Y171593D01*
X139269Y172645D01*
X139911Y173845D01*
X140306Y175146D01*
X140439Y176500D01*
X140306Y177854D01*
X139911Y179155D01*
X139269Y180355D01*
X138407Y181407D01*
X137355Y182270D01*
X136155Y182911D01*
X134854Y183306D01*
X133500Y183439D01*
D02*
G37*
%LPD*%
G36*
X328765Y423378D02*
X330581Y421563D01*
Y411772D01*
X316884Y398076D01*
X316442Y397414D01*
X316286Y396634D01*
Y291212D01*
X315786Y291097D01*
X297623Y309261D01*
X297810Y309711D01*
X297980Y311000D01*
X297810Y312289D01*
X297312Y313490D01*
X296521Y314521D01*
X295490Y315313D01*
X294483Y315729D01*
Y316271D01*
X295490Y316687D01*
X296521Y317479D01*
X297312Y318510D01*
X297810Y319711D01*
X297980Y321000D01*
X297810Y322289D01*
X297312Y323490D01*
X296521Y324521D01*
X295490Y325312D01*
X294483Y325729D01*
Y326271D01*
X295490Y326688D01*
X296521Y327479D01*
X297312Y328510D01*
X297810Y329711D01*
X297980Y331000D01*
X297810Y332289D01*
X297312Y333490D01*
X296521Y334521D01*
X295490Y335313D01*
X294483Y335729D01*
Y336271D01*
X295490Y336687D01*
X296521Y337479D01*
X297312Y338510D01*
X297810Y339711D01*
X297980Y341000D01*
X297810Y342289D01*
X297312Y343490D01*
X296521Y344521D01*
X295490Y345312D01*
X294483Y345729D01*
Y346271D01*
X295490Y346688D01*
X296521Y347479D01*
X297312Y348510D01*
X297810Y349711D01*
X297980Y351000D01*
X297810Y352289D01*
X297312Y353490D01*
X296521Y354521D01*
X295490Y355312D01*
X294483Y355729D01*
Y356271D01*
X295490Y356687D01*
X296521Y357479D01*
X297312Y358510D01*
X297810Y359711D01*
X297980Y361000D01*
X297810Y362289D01*
X297312Y363490D01*
X296521Y364521D01*
X295490Y365313D01*
X294289Y365810D01*
X293000Y365980D01*
X291711Y365810D01*
X290510Y365313D01*
X289479Y364521D01*
X288687Y363490D01*
X288190Y362289D01*
X288020Y361000D01*
X288190Y359711D01*
X288687Y358510D01*
X289479Y357479D01*
X290510Y356687D01*
X291517Y356271D01*
Y355729D01*
X290510Y355312D01*
X289479Y354521D01*
X288687Y353490D01*
X288190Y352289D01*
X288020Y351000D01*
X288190Y349711D01*
X288687Y348510D01*
X289479Y347479D01*
X290510Y346688D01*
X291517Y346271D01*
Y345729D01*
X290510Y345312D01*
X289479Y344521D01*
X288687Y343490D01*
X288190Y342289D01*
X288020Y341000D01*
X288190Y339711D01*
X288687Y338510D01*
X289479Y337479D01*
X290510Y336687D01*
X291517Y336271D01*
Y335729D01*
X290510Y335313D01*
X289479Y334521D01*
X288687Y333490D01*
X288190Y332289D01*
X288020Y331000D01*
X288190Y329711D01*
X288687Y328510D01*
X289479Y327479D01*
X290510Y326688D01*
X291517Y326271D01*
Y325729D01*
X290510Y325312D01*
X289479Y324521D01*
X288687Y323490D01*
X288190Y322289D01*
X288020Y321000D01*
X288190Y319711D01*
X288687Y318510D01*
X289479Y317479D01*
X290510Y316687D01*
X291517Y316271D01*
Y315729D01*
X290510Y315313D01*
X289479Y314521D01*
X288687Y313490D01*
X288190Y312289D01*
X288020Y311000D01*
X288190Y309711D01*
X288687Y308510D01*
X289479Y307479D01*
X290510Y306687D01*
X291517Y306271D01*
Y305729D01*
X290510Y305312D01*
X289479Y304521D01*
X288687Y303490D01*
X288190Y302289D01*
X288020Y301000D01*
X288190Y299711D01*
X288687Y298510D01*
X289479Y297479D01*
X290510Y296688D01*
X291517Y296271D01*
Y295729D01*
X290510Y295312D01*
X289479Y294521D01*
X288687Y293490D01*
X288190Y292289D01*
X288020Y291000D01*
X288190Y289711D01*
X288377Y289261D01*
X252671Y253555D01*
X252100Y253630D01*
X251186Y253510D01*
X250335Y253157D01*
X249604Y252596D01*
X249043Y251865D01*
X248690Y251014D01*
X248570Y250100D01*
X248690Y249186D01*
X249043Y248335D01*
X249604Y247604D01*
X250335Y247043D01*
X251186Y246690D01*
X251133Y246193D01*
X207960D01*
Y318079D01*
X207805Y318859D01*
X207363Y319521D01*
X197623Y329261D01*
X197810Y329711D01*
X197980Y331000D01*
X197810Y332289D01*
X197312Y333490D01*
X196521Y334521D01*
X195490Y335313D01*
X194483Y335729D01*
Y336271D01*
X195490Y336687D01*
X196521Y337479D01*
X197312Y338510D01*
X197810Y339711D01*
X197980Y341000D01*
X197810Y342289D01*
X197623Y342739D01*
X278722Y423838D01*
X328765Y423378D01*
D02*
G37*
%LPC*%
G36*
X325894Y418500D02*
X316894D01*
Y409500D01*
X325894D01*
Y418500D01*
D02*
G37*
G36*
X311394Y418539D02*
X310219Y418384D01*
X309124Y417931D01*
X308184Y417209D01*
X307463Y416269D01*
X307368Y416039D01*
X292500D01*
X291720Y415884D01*
X291058Y415442D01*
X291058Y415442D01*
X218458Y342842D01*
X218016Y342180D01*
X217861Y341400D01*
Y270747D01*
X217404Y270396D01*
X216843Y269665D01*
X216490Y268814D01*
X216370Y267900D01*
X216490Y266986D01*
X216843Y266135D01*
X217404Y265404D01*
X218135Y264843D01*
X218986Y264490D01*
X219900Y264370D01*
X220814Y264490D01*
X221665Y264843D01*
X222396Y265404D01*
X222957Y266135D01*
X223310Y266986D01*
X223430Y267900D01*
X223310Y268814D01*
X222957Y269665D01*
X222396Y270396D01*
X221939Y270747D01*
Y340555D01*
X293345Y411961D01*
X307368D01*
X307463Y411731D01*
X308184Y410791D01*
X309124Y410069D01*
X310219Y409616D01*
X311394Y409461D01*
X312568Y409616D01*
X313663Y410069D01*
X314603Y410791D01*
X315324Y411731D01*
X315778Y412825D01*
X315933Y414000D01*
X315778Y415175D01*
X315324Y416269D01*
X314603Y417209D01*
X313663Y417931D01*
X312568Y418384D01*
X311394Y418539D01*
D02*
G37*
G36*
X293000Y385980D02*
X291711Y385810D01*
X290510Y385313D01*
X289479Y384521D01*
X288687Y383490D01*
X288190Y382289D01*
X288020Y381000D01*
X288190Y379711D01*
X288687Y378510D01*
X289479Y377479D01*
X290510Y376688D01*
X291711Y376190D01*
X293000Y376020D01*
X294289Y376190D01*
X295490Y376688D01*
X296521Y377479D01*
X297312Y378510D01*
X297810Y379711D01*
X297980Y381000D01*
X297810Y382289D01*
X297312Y383490D01*
X296521Y384521D01*
X295490Y385313D01*
X294289Y385810D01*
X293000Y385980D01*
D02*
G37*
G36*
X311000Y352996D02*
X302000D01*
Y343996D01*
X311000D01*
Y352996D01*
D02*
G37*
%LPD*%
D25*
X219900Y341400D02*
X292500Y414000D01*
X311394D01*
X389000Y249500D02*
X397829Y240671D01*
Y191929D02*
Y240671D01*
X379648Y173748D02*
X397829Y191929D01*
X290410Y173748D02*
X379648D01*
X281158Y183000D02*
X290410Y173748D01*
X318326Y396634D02*
X332620Y410928D01*
X318326Y234174D02*
X333000Y219500D01*
X318326Y234174D02*
Y396634D01*
X330196Y424831D02*
X332620Y422408D01*
Y410928D02*
Y422408D01*
X329618Y425410D02*
X330196Y424831D01*
X278715Y425878D02*
X328800Y425417D01*
X329618Y425410D01*
X277878Y425878D02*
X278715D01*
X193000Y341000D02*
X277878Y425878D01*
X180131Y278617D02*
Y356567D01*
X178105Y358783D02*
Y381000D01*
X180131Y356567D02*
X184929Y361365D01*
X177131Y357809D02*
X178105Y358783D01*
X171000Y316606D02*
X177131Y322738D01*
Y357809D01*
X185646Y288354D02*
Y329894D01*
Y288354D02*
X193000Y281000D01*
X184929Y361365D02*
Y389177D01*
X171000Y403106D02*
X184929Y389177D01*
X131224Y279276D02*
Y350224D01*
Y279276D02*
X139000Y271500D01*
X131224Y350224D02*
X139000Y358000D01*
X397500Y342000D02*
Y409700D01*
X384911Y422289D02*
X397500Y409700D01*
X389000Y333500D02*
X397500Y342000D01*
X364789Y422289D02*
X384911D01*
X336500Y394000D02*
X364789Y422289D01*
X371994Y296494D02*
X379000Y303500D01*
X340006Y296494D02*
X371994D01*
X333000Y303500D02*
X340006Y296494D01*
X285278Y201957D02*
Y263278D01*
X260521Y177200D02*
X285278Y201957D01*
X251958Y177200D02*
X260521D01*
X245157Y184000D02*
X251958Y177200D01*
X211488Y183955D02*
Y213227D01*
X198970Y177030D02*
X204563D01*
X211488Y183955D01*
X192000Y184000D02*
X198970Y177030D01*
X205921Y218794D02*
X211488Y213227D01*
X205921Y218794D02*
Y318079D01*
X193000Y331000D02*
X205921Y318079D01*
X182180Y220920D02*
X190799Y212301D01*
X182180Y220920D02*
Y245214D01*
X171000Y256394D02*
X182180Y245214D01*
X293000Y311000D02*
X314425Y289575D01*
Y206196D02*
Y289575D01*
X190799Y212301D02*
X190828D01*
X201843Y184000D02*
Y312157D01*
X193000Y321000D02*
X201843Y312157D01*
X285278Y263278D02*
X293000Y271000D01*
X394500Y262500D02*
Y328000D01*
X167800Y228643D02*
X173000Y233843D01*
X167800Y198357D02*
Y228643D01*
Y198357D02*
X182157Y184000D01*
X157600Y286600D02*
X177500Y266700D01*
X157600Y286600D02*
Y369400D01*
X149000Y378000D02*
X157600Y369400D01*
X280244Y268244D02*
X293000Y281000D01*
X280244Y209244D02*
Y268244D01*
X255000Y184000D02*
X280244Y209244D01*
X252100Y250100D02*
X293000Y291000D01*
X219900Y267900D02*
Y341400D01*
X161900Y341994D02*
X171000Y332894D01*
X161900Y341994D02*
Y375100D01*
X149000Y388000D02*
X161900Y375100D01*
X372300Y212800D02*
X379000Y219500D01*
X339700Y212800D02*
X372300D01*
X333000Y219500D02*
X339700Y212800D01*
X394500Y255000D02*
Y262500D01*
X392000Y265000D02*
X394500Y262500D01*
X358500Y265000D02*
X392000D01*
X343000Y249500D02*
X358500Y265000D01*
X366500Y394000D02*
X381500Y409000D01*
Y414000D01*
X293000Y301000D02*
X300843Y293157D01*
Y183000D02*
Y293157D01*
X389000Y333500D02*
X394500Y328000D01*
X389000Y249500D02*
X394500Y255000D01*
X356500Y384000D02*
Y394000D01*
D26*
X133500Y176500D02*
D03*
Y426000D02*
D03*
X398500Y176500D02*
D03*
X397500Y426000D02*
D03*
D27*
X193000Y381000D02*
D03*
D28*
Y371000D02*
D03*
Y361000D02*
D03*
Y351000D02*
D03*
Y341000D02*
D03*
Y331000D02*
D03*
Y321000D02*
D03*
Y311000D02*
D03*
Y301000D02*
D03*
Y291000D02*
D03*
Y281000D02*
D03*
Y271000D02*
D03*
Y261000D02*
D03*
Y251000D02*
D03*
Y241000D02*
D03*
X293000Y381000D02*
D03*
Y371000D02*
D03*
Y361000D02*
D03*
Y351000D02*
D03*
Y341000D02*
D03*
Y331000D02*
D03*
Y321000D02*
D03*
Y311000D02*
D03*
Y301000D02*
D03*
Y291000D02*
D03*
Y281000D02*
D03*
Y271000D02*
D03*
Y261000D02*
D03*
Y251000D02*
D03*
Y241000D02*
D03*
D29*
X171000Y256394D02*
D03*
Y316606D02*
D03*
Y403106D02*
D03*
Y342894D02*
D03*
X343000Y259500D02*
D03*
Y249500D02*
D03*
Y239500D02*
D03*
Y229500D02*
D03*
X333000Y259500D02*
D03*
Y249500D02*
D03*
Y239500D02*
D03*
Y229500D02*
D03*
Y219500D02*
D03*
X389000Y259500D02*
D03*
Y249500D02*
D03*
Y239500D02*
D03*
Y229500D02*
D03*
X379000Y259500D02*
D03*
Y249500D02*
D03*
Y239500D02*
D03*
Y229500D02*
D03*
Y219500D02*
D03*
X343000Y343500D02*
D03*
Y333500D02*
D03*
Y323500D02*
D03*
Y313500D02*
D03*
X333000Y343500D02*
D03*
Y333500D02*
D03*
Y323500D02*
D03*
Y313500D02*
D03*
Y303500D02*
D03*
X389000Y343500D02*
D03*
Y333500D02*
D03*
Y323500D02*
D03*
Y313500D02*
D03*
X379000Y343500D02*
D03*
Y333500D02*
D03*
Y323500D02*
D03*
Y313500D02*
D03*
Y303500D02*
D03*
X306500Y338496D02*
D03*
X139000Y348000D02*
D03*
Y358000D02*
D03*
Y368000D02*
D03*
Y378000D02*
D03*
X149000Y348000D02*
D03*
Y358000D02*
D03*
Y368000D02*
D03*
Y378000D02*
D03*
Y388000D02*
D03*
X326500Y394000D02*
D03*
X336500D02*
D03*
X346500D02*
D03*
X356500D02*
D03*
X326500Y384000D02*
D03*
X336500D02*
D03*
X346500D02*
D03*
X356500D02*
D03*
X366500D02*
D03*
X139000Y261500D02*
D03*
Y271500D02*
D03*
Y281500D02*
D03*
Y291500D02*
D03*
X149000Y261500D02*
D03*
Y271500D02*
D03*
Y281500D02*
D03*
Y291500D02*
D03*
Y301500D02*
D03*
X371500Y414000D02*
D03*
X311394D02*
D03*
D30*
X171000Y246394D02*
D03*
Y306606D02*
D03*
Y393106D02*
D03*
Y332894D02*
D03*
X343000Y219500D02*
D03*
X389000D02*
D03*
X343000Y303500D02*
D03*
X389000D02*
D03*
X306500Y348496D02*
D03*
X139000Y388000D02*
D03*
Y301500D02*
D03*
D31*
X255000Y184000D02*
D03*
X245157D02*
D03*
X235315D02*
D03*
X201843D02*
D03*
X192000D02*
D03*
X182157D02*
D03*
X281158Y183000D02*
D03*
X291000D02*
D03*
X300843D02*
D03*
D32*
X225472Y184000D02*
D03*
X172315D02*
D03*
D33*
X366500Y394000D02*
D03*
X381500Y414000D02*
D03*
X321394D02*
D03*
D34*
X173000Y214157D02*
D03*
Y233843D02*
D03*
D35*
X142219Y198370D02*
D03*
Y218055D02*
D03*
D36*
X180131Y278617D02*
D03*
X185646Y329894D02*
D03*
X178105Y381000D02*
D03*
X314425Y206196D02*
D03*
X190828Y212301D02*
D03*
X177500Y266700D02*
D03*
X252100Y250100D02*
D03*
X219900Y267900D02*
D03*
M02*
