M48
;Layer_Color=9474304
;FILE_FORMAT=2:5
INCH,LZ
;TYPE=PLATED
T1F00S00C0.02800
T2F00S00C0.03346
T3F00S00C0.04000
T4F00S00C0.04016
T5F00S00C0.04331
T6F00S00C0.05512
T7F00S00C0.11811
%
T01
X0314425Y0206196
X02521Y02501
X02199Y02679
X01775Y02667
X0180131Y0278617
X0190828Y0212301
X0185646Y0329894
X0178105Y0381
T02
X0173Y0214157
Y0233843
T03
X0333Y02195
X0343
Y02295
Y02395
Y02495
Y02595
X0333
Y02495
Y02395
Y02295
X0379
X0389
Y02395
Y02495
Y02595
X0379
Y02495
Y02395
Y02195
X0389
Y03035
X0379
X0343
X0333
X0171Y0306606
Y0256394
Y0246394
X0149Y02615
X0139
Y02715
Y02815
Y02915
Y03015
X0149
Y02915
Y02815
Y02715
Y0348
X0139
Y0358
Y0368
Y0378
Y0388
X0149
Y0378
Y0368
Y0358
X0171Y0342894
Y0332894
Y0316606
Y0393106
Y0403106
X0311394Y0414
X03065Y0348496
Y0338496
X0333Y03335
X0343
Y03435
X0333
Y03235
X0343
Y03135
X0333
X0379
X0389
Y03235
Y03335
Y03435
X0379
Y03335
Y03235
X03665Y0384
Y0394
X03565
X03465
X03365
X03265
Y0384
X03365
X03465
X03565
X03715Y0414
X03815
X0321394
T04
X0193Y0241
Y0251
Y0261
Y0271
Y0281
Y0291
Y0301
Y0311
X0293
Y0301
Y0291
Y0281
Y0271
Y0261
Y0251
Y0241
Y0321
Y0331
Y0341
Y0351
Y0361
Y0371
Y0381
X0193
Y0371
Y0361
Y0351
Y0341
Y0331
Y0321
T05
X0172315Y0184
X0182157
X0192
X0201843
X0225472
X0235315
X0245157
X0255
X0281158Y0183
X0291
X0300843
T06
X0142219Y019837
Y0218055
T07
X03985Y01765
X01335
Y0426
X03975
M30
