G04*
G04 #@! TF.GenerationSoftware,Altium Limited,Altium Designer,21.6.4 (81)*
G04*
G04 Layer_Color=16711935*
%FSLAX25Y25*%
%MOIN*%
G70*
G04*
G04 #@! TF.SameCoordinates,3774DA31-8614-4C77-8703-5363F9479B90*
G04*
G04*
G04 #@! TF.FilePolarity,Positive*
G04*
G01*
G75*
%ADD10C,0.00787*%
%ADD11C,0.00500*%
%ADD13C,0.00394*%
D10*
X184929Y381000D02*
G03*
X184929Y381000I-394J0D01*
G01*
X165520Y233449D02*
X180480D01*
X165520Y214551D02*
Y233449D01*
Y214551D02*
X180480D01*
Y233449D01*
X128440Y227898D02*
X157967D01*
X128440Y188527D02*
Y227898D01*
Y188527D02*
X157967D01*
Y227898D01*
D11*
X186780Y420213D02*
X230358D01*
X256780D01*
X299024D01*
X186780Y219622D02*
Y420213D01*
X299024Y219622D02*
Y420213D01*
X186780Y219622D02*
X207921D01*
X277567D01*
X299024D01*
X207921D02*
Y245173D01*
Y294898D01*
X277567D01*
Y245173D02*
Y294898D01*
Y219622D02*
Y245173D01*
X207921D02*
X277567D01*
X256780Y404898D02*
Y420213D01*
X230358Y404898D02*
X256780D01*
X230358D02*
Y420213D01*
D13*
X215827Y174748D02*
X264646D01*
Y197386D01*
X215827D02*
X264646D01*
X215827Y174748D02*
Y197386D01*
X162669Y174748D02*
X211488D01*
Y197386D01*
X162669D02*
X211488D01*
X162669Y174748D02*
Y197386D01*
X271512Y173748D02*
X310488D01*
Y196386D01*
X271512D02*
X310488D01*
X271512Y173748D02*
Y196386D01*
M02*
